<svg width="600" height="600" viewBox="0 0 600 600" fill="none" xmlns="http://www.w3.org/2000/svg">
<g clip-path="url(#clip0_2605_20251)">
<rect width="600" height="600" fill="#F7F9EE"/>
<path d="M305.78 433.675L250.791 338.422V264.615H200.451V338.422L145.493 433.675C143.877 436.475 143.026 439.652 143.027 442.885C143.028 446.118 143.881 449.294 145.499 452.093C147.118 454.893 149.445 457.216 152.247 458.83C155.049 460.444 158.226 461.291 161.459 461.287H289.834C293.066 461.288 296.241 460.438 299.04 458.822C301.838 457.207 304.163 454.883 305.779 452.085C307.395 449.286 308.246 446.111 308.246 442.88C308.246 439.648 307.396 436.473 305.78 433.675Z" fill="url(#paint0_linear_2605_20251)"/>
<path d="M251.284 248.885H199.999C196.531 248.885 193.72 251.696 193.72 255.164V258.335C193.72 261.803 196.531 264.615 199.999 264.615H251.284C254.752 264.615 257.563 261.803 257.563 258.335V255.164C257.563 251.696 254.752 248.885 251.284 248.885Z" fill="url(#paint1_linear_2605_20251)"/>
<path d="M262.551 388.137C248.678 397.915 226.206 397.915 212.344 388.137L212.026 387.911C205.397 383.232 196.788 380.79 188.097 380.585C187.226 380.57 186.368 380.79 185.611 381.222C184.855 381.653 184.229 382.28 183.798 383.037L152.297 437.595C151.352 439.203 150.854 441.034 150.854 442.899C150.854 444.765 151.352 446.596 152.297 448.204C153.275 449.819 154.658 451.151 156.308 452.068C157.958 452.986 159.818 453.458 161.706 453.437H289.558C291.444 453.459 293.304 452.988 294.952 452.07C296.601 451.152 297.981 449.819 298.957 448.204C299.904 446.597 300.404 444.765 300.404 442.899C300.404 441.034 299.904 439.202 298.957 437.595L270.842 388.865C270.512 388.294 270.071 387.795 269.544 387.399C269.017 387.002 268.415 386.717 267.775 386.558C267.135 386.4 266.469 386.373 265.818 386.479C265.168 386.584 264.545 386.82 263.987 387.172C263.495 387.48 263.023 387.798 262.551 388.137Z" fill="url(#paint2_linear_2605_20251)"/>
<path d="M201.816 411.419C205.188 411.419 207.921 408.685 207.921 405.313C207.921 401.941 205.188 399.208 201.816 399.208C198.444 399.208 195.711 401.941 195.711 405.313C195.711 408.685 198.444 411.419 201.816 411.419Z" fill="#D1CFCF"/>
<path d="M264.264 404.308C265.947 404.308 267.312 402.943 267.312 401.26C267.312 399.577 265.947 398.213 264.264 398.213C262.581 398.213 261.217 399.577 261.217 401.26C261.217 402.943 262.581 404.308 264.264 404.308Z" fill="#D1CFCF"/>
<path d="M215.114 417.247C216.797 417.247 218.161 415.883 218.161 414.2C218.161 412.517 216.797 411.152 215.114 411.152C213.431 411.152 212.066 412.517 212.066 414.2C212.066 415.883 213.431 417.247 215.114 417.247Z" fill="#D1CFCF"/>
<path d="M248.678 423.085C253.586 423.085 257.564 419.107 257.564 414.199C257.564 409.292 253.586 405.313 248.678 405.313C243.77 405.313 239.792 409.292 239.792 414.199C239.792 419.107 243.77 423.085 248.678 423.085Z" fill="#D1CFCF"/>
<path d="M438.848 139.085L423.655 154.278C422.593 155.34 422.593 157.062 423.655 158.124L444.167 178.635C445.229 179.697 446.95 179.697 448.012 178.635L463.205 163.442C464.267 162.38 464.267 160.659 463.205 159.597L442.694 139.085C441.632 138.023 439.91 138.023 438.848 139.085Z" fill="#B3B3B3"/>
<path d="M438.848 139.085L423.655 154.278C422.593 155.34 422.593 157.062 423.655 158.124L444.167 178.635C445.229 179.697 446.95 179.697 448.012 178.635L463.205 163.442C464.267 162.38 464.267 160.659 463.205 159.597L442.694 139.085C441.632 138.023 439.91 138.023 438.848 139.085Z" fill="url(#paint3_linear_2605_20251)"/>
<path d="M324.896 258.344L309.703 273.537C308.641 274.599 308.641 276.321 309.703 277.383L324.896 292.576C325.958 293.638 327.679 293.638 328.741 292.576L343.934 277.383C344.996 276.321 344.996 274.599 343.934 273.537L328.741 258.344C327.679 257.282 325.958 257.282 324.896 258.344Z" fill="url(#paint4_linear_2605_20251)"/>
<path d="M320.728 243.636L422.546 141.818C423.056 141.308 423.747 141.022 424.469 141.022C425.19 141.022 425.881 141.308 426.391 141.818L460.493 175.919C460.745 176.172 460.945 176.472 461.082 176.801C461.219 177.131 461.289 177.485 461.289 177.842C461.289 178.199 461.219 178.553 461.082 178.883C460.945 179.212 460.745 179.512 460.493 179.765L358.675 281.583L320.728 243.636Z" fill="url(#paint5_linear_2605_20251)"/>
<path d="M313.691 240.443L304.665 249.469C303.603 250.531 303.603 252.252 304.665 253.314L348.975 297.624C350.037 298.686 351.758 298.686 352.82 297.624L361.846 288.598C362.908 287.536 362.908 285.815 361.846 284.753L317.536 240.443C316.474 239.381 314.753 239.381 313.691 240.443Z" fill="url(#paint6_linear_2605_20251)"/>
<path d="M396.333 210.92L381.844 226.055C391.584 231.971 399.945 239.903 406.367 249.317C412.789 258.731 417.123 269.41 419.078 280.637C421.033 291.864 420.564 303.38 417.702 314.411C414.84 325.441 409.652 335.732 402.485 344.593C395.319 353.453 386.34 360.678 376.151 365.783C365.962 370.887 354.799 373.753 343.411 374.188C332.024 374.623 320.675 372.617 310.126 368.305C299.577 363.993 290.073 357.474 282.251 349.186H256.178C264.31 361.667 275.115 372.184 287.811 379.974C300.508 387.765 314.778 392.635 329.588 394.231C344.398 395.827 359.378 394.11 373.443 389.204C387.508 384.298 400.306 376.325 410.91 365.864C421.515 355.402 429.66 342.714 434.756 328.717C439.853 314.72 441.773 299.764 440.377 284.934C438.982 270.103 434.306 255.769 426.689 242.968C419.071 230.167 408.702 219.22 396.333 210.92Z" fill="url(#paint7_linear_2605_20251)"/>
<path d="M338.626 355.712C332.335 355.713 326.251 357.957 321.468 362.043C316.685 366.128 313.516 371.786 312.532 377.999L305.206 435.399H372.056L364.729 377.999C363.745 371.784 360.574 366.125 355.789 362.039C351.004 357.954 344.918 355.71 338.626 355.712Z" fill="url(#paint8_linear_2605_20251)"/>
<g filter="url(#filter0_f_2605_20251)">
<path d="M338.625 401.261C346.854 401.261 353.524 394.59 353.524 386.362C353.524 378.133 346.854 371.463 338.625 371.463C330.397 371.463 323.727 378.133 323.727 386.362C323.727 394.59 330.397 401.261 338.625 401.261Z" fill="#535353"/>
</g>
<path d="M338.625 396.469C346.854 396.469 353.524 389.798 353.524 381.57C353.524 373.341 346.854 366.671 338.625 366.671C330.397 366.671 323.727 373.341 323.727 381.57C323.727 389.798 330.397 396.469 338.625 396.469Z" fill="url(#paint9_linear_2605_20251)"/>
<path d="M338.625 396.469C346.854 396.469 353.524 389.798 353.524 381.57C353.524 373.341 346.854 366.671 338.625 366.671C330.397 366.671 323.727 373.341 323.727 381.57C323.727 389.798 330.397 396.469 338.625 396.469Z" fill="url(#paint10_linear_2605_20251)"/>
<path d="M394.312 461.717H282.95C282.562 461.718 282.178 461.631 281.827 461.465C281.477 461.299 281.167 461.057 280.922 460.756C280.676 460.456 280.501 460.104 280.408 459.727C280.315 459.351 280.307 458.958 280.384 458.577L284.735 437.481C284.864 436.897 285.189 436.375 285.655 436.002C286.122 435.629 286.703 435.426 287.3 435.429H389.961C390.558 435.425 391.138 435.627 391.603 436.001C392.069 436.375 392.391 436.897 392.516 437.481L396.867 458.577C396.946 458.957 396.94 459.35 396.848 459.727C396.757 460.104 396.582 460.455 396.337 460.756C396.093 461.057 395.784 461.299 395.433 461.466C395.083 461.632 394.7 461.718 394.312 461.717Z" fill="url(#paint11_linear_2605_20251)"/>
<path d="M381.203 183.036L359.175 205.064L397.049 242.939L419.077 220.911L381.203 183.036Z" fill="url(#paint12_linear_2605_20251)"/>
<path d="M322.66 351.003H224.257C223.885 351.025 223.513 350.972 223.162 350.845C222.812 350.719 222.491 350.522 222.22 350.266C221.948 350.011 221.732 349.703 221.584 349.361C221.437 349.019 221.36 348.651 221.36 348.278C221.36 347.906 221.437 347.537 221.584 347.195C221.732 346.853 221.948 346.545 222.22 346.29C222.491 346.035 222.812 345.838 223.162 345.711C223.513 345.585 223.885 345.531 224.257 345.554H322.66C323.353 345.597 324.005 345.902 324.481 346.408C324.957 346.915 325.222 347.583 325.222 348.278C325.222 348.973 324.957 349.642 324.481 350.148C324.005 350.654 323.353 350.96 322.66 351.003Z" fill="#868686"/>
<path d="M300.505 163.842V218.964C300.539 219.764 300.41 220.563 300.127 221.312C299.843 222.062 299.411 222.746 298.857 223.324C298.302 223.902 297.637 224.362 296.9 224.676C296.163 224.99 295.37 225.152 294.57 225.152C293.769 225.152 292.976 224.99 292.239 224.676C291.502 224.362 290.837 223.902 290.282 223.324C289.728 222.746 289.296 222.062 289.012 221.312C288.729 220.563 288.6 219.764 288.634 218.964V163.842C288.6 163.042 288.729 162.243 289.012 161.494C289.296 160.745 289.728 160.061 290.282 159.483C290.837 158.905 291.502 158.445 292.239 158.13C292.976 157.816 293.769 157.654 294.57 157.654C295.37 157.654 296.163 157.816 296.9 158.13C297.637 158.445 298.302 158.905 298.857 159.483C299.411 160.061 299.843 160.745 300.127 161.494C300.41 162.243 300.539 163.042 300.505 163.842Z" fill="#727272"/>
<path d="M272.945 163.842V218.964C272.979 219.764 272.85 220.563 272.566 221.312C272.283 222.062 271.851 222.746 271.297 223.324C270.742 223.902 270.077 224.362 269.34 224.676C268.603 224.99 267.81 225.152 267.009 225.152C266.208 225.152 265.416 224.99 264.679 224.676C263.942 224.362 263.277 223.902 262.722 223.324C262.168 222.746 261.736 222.062 261.452 221.312C261.169 220.563 261.04 219.764 261.073 218.964V163.842C261.04 163.042 261.169 162.243 261.452 161.494C261.736 160.745 262.168 160.061 262.722 159.483C263.277 158.905 263.942 158.445 264.679 158.13C265.416 157.816 266.208 157.654 267.009 157.654C267.81 157.654 268.603 157.816 269.34 158.13C270.077 158.445 270.742 158.905 271.297 159.483C271.851 160.061 272.283 160.745 272.566 161.494C272.85 162.243 272.979 163.042 272.945 163.842Z" fill="#727272"/>
<path d="M322.557 224.474C322.557 226.05 321.931 227.561 320.817 228.675C319.702 229.789 318.191 230.415 316.616 230.415H272.493C262.158 230.396 252.251 226.282 244.943 218.974C237.635 211.666 233.521 201.759 233.502 191.424C233.494 184.23 230.633 177.333 225.547 172.245C220.461 167.157 213.566 164.294 206.372 164.283H162.25C161.449 164.317 160.651 164.188 159.901 163.904C159.152 163.621 158.468 163.189 157.89 162.635C157.312 162.08 156.852 161.415 156.538 160.678C156.224 159.941 156.062 159.148 156.062 158.347C156.062 157.546 156.224 156.754 156.538 156.017C156.852 155.28 157.312 154.614 157.89 154.06C158.468 153.505 159.152 153.074 159.901 152.79C160.651 152.507 161.449 152.378 162.25 152.411H206.372C216.708 152.428 226.616 156.541 233.925 163.85C241.234 171.159 245.347 181.067 245.364 191.403C245.372 198.597 248.232 205.494 253.318 210.581C258.404 215.669 265.3 218.532 272.493 218.543H316.616C317.395 218.542 318.168 218.694 318.888 218.992C319.609 219.289 320.264 219.726 320.816 220.277C321.368 220.828 321.806 221.482 322.104 222.202C322.403 222.922 322.557 223.694 322.557 224.474Z" fill="#727272"/>
<path d="M322.556 158.321C322.556 159.897 321.93 161.408 320.816 162.522C319.702 163.637 318.191 164.263 316.615 164.263H272.493C265.299 164.279 258.406 167.147 253.324 172.239C248.242 177.33 245.386 184.23 245.384 191.423C245.365 201.759 241.25 211.665 233.942 218.974C226.634 226.282 216.727 230.396 206.392 230.415H162.27C161.469 230.448 160.671 230.319 159.921 230.036C159.172 229.753 158.488 229.321 157.91 228.766C157.332 228.212 156.872 227.546 156.558 226.809C156.244 226.073 156.082 225.28 156.082 224.479C156.082 223.678 156.244 222.885 156.558 222.149C156.872 221.412 157.332 220.746 157.91 220.192C158.488 219.637 159.172 219.205 159.921 218.922C160.671 218.639 161.469 218.51 162.27 218.543H206.392C213.579 218.527 220.466 215.664 225.547 210.581C230.628 205.499 233.488 198.61 233.501 191.423C233.518 181.087 237.631 171.179 244.94 163.87C252.249 156.561 262.157 152.448 272.493 152.432H316.615C318.183 152.429 319.688 153.047 320.801 154.151C321.914 155.254 322.545 156.754 322.556 158.321Z" fill="#BDBDBD"/>
<path d="M217.813 163.842V218.964C217.846 219.764 217.717 220.563 217.434 221.312C217.15 222.062 216.719 222.746 216.164 223.324C215.61 223.902 214.944 224.362 214.207 224.676C213.47 224.99 212.678 225.152 211.877 225.152C211.076 225.152 210.283 224.99 209.546 224.676C208.809 224.362 208.144 223.902 207.589 223.324C207.035 222.746 206.603 222.062 206.32 221.312C206.036 220.563 205.907 219.764 205.941 218.964V163.842C205.907 163.042 206.036 162.243 206.32 161.494C206.603 160.745 207.035 160.061 207.589 159.483C208.144 158.905 208.809 158.445 209.546 158.13C210.283 157.816 211.076 157.654 211.877 157.654C212.678 157.654 213.47 157.816 214.207 158.13C214.944 158.445 215.61 158.905 216.164 159.483C216.719 160.061 217.15 160.745 217.434 161.494C217.717 162.243 217.846 163.042 217.813 163.842Z" fill="#BDBDBD"/>
<path d="M190.251 163.842V218.964C190.285 219.764 190.156 220.563 189.872 221.312C189.589 222.062 189.157 222.746 188.603 223.324C188.048 223.902 187.383 224.362 186.646 224.676C185.909 224.99 185.116 225.152 184.315 225.152C183.514 225.152 182.722 224.99 181.985 224.676C181.248 224.362 180.582 223.902 180.028 223.324C179.474 222.746 179.042 222.062 178.758 221.312C178.475 220.563 178.346 219.764 178.379 218.964V163.842C178.346 163.042 178.475 162.243 178.758 161.494C179.042 160.745 179.474 160.061 180.028 159.483C180.582 158.905 181.248 158.445 181.985 158.13C182.722 157.816 183.514 157.654 184.315 157.654C185.116 157.654 185.909 157.816 186.646 158.13C187.383 158.445 188.048 158.905 188.603 159.483C189.157 160.061 189.589 160.745 189.872 161.494C190.156 162.243 190.285 163.042 190.251 163.842Z" fill="#BDBDBD"/>
<g style="mix-blend-mode:overlay">
<path fill-rule="evenodd" clip-rule="evenodd" d="M438.848 139.086L431.254 146.68L426.392 141.818C425.882 141.308 425.19 141.022 424.469 141.022C423.748 141.022 423.056 141.308 422.546 141.818L381.265 183.099L381.202 183.037L359.174 205.065L359.237 205.127L320.728 243.636L317.536 240.443C316.474 239.381 314.753 239.381 313.691 240.443L304.665 249.469C303.603 250.531 303.603 252.253 304.665 253.315L317.295 265.945L309.702 273.538C308.64 274.6 308.64 276.322 309.702 277.383L324.895 292.577C325.957 293.639 327.679 293.639 328.741 292.577L336.334 284.984L348.975 297.625C350.037 298.686 351.758 298.686 352.82 297.625L361.846 288.599C362.908 287.537 362.908 285.815 361.846 284.753L358.675 281.583L399.568 240.69C402.024 243.4 404.297 246.281 406.368 249.317C412.79 258.731 417.124 269.41 419.078 280.637C421.033 291.864 420.564 303.38 417.702 314.411C414.84 325.441 409.652 335.732 402.485 344.593C395.319 353.453 386.34 360.678 376.151 365.783C371.802 367.961 367.276 369.732 362.631 371.08C361.043 367.633 358.719 364.542 355.789 362.04C351.003 357.954 344.917 355.71 338.625 355.712C332.335 355.713 326.251 357.958 321.468 362.043C318.808 364.315 316.647 367.073 315.084 370.143C313.414 369.586 311.76 368.973 310.126 368.305C300.36 364.313 291.49 358.43 284.021 351.003H322.659C323.353 350.96 324.004 350.654 324.48 350.148C324.956 349.642 325.221 348.973 325.221 348.278C325.221 347.583 324.956 346.915 324.48 346.408C324.004 345.902 323.353 345.597 322.659 345.554H254.908L250.791 338.423V264.616H251.284C254.752 264.616 257.564 261.804 257.564 258.336V255.165C257.564 251.697 254.752 248.886 251.284 248.886H200C196.531 248.886 193.72 251.697 193.72 255.165V258.336C193.72 261.804 196.531 264.616 200 264.616H200.451V338.423L145.493 433.675C143.877 436.475 143.026 439.652 143.027 442.885C143.028 446.119 143.881 449.295 145.499 452.094C147.118 454.893 149.445 457.216 152.247 458.83C155.049 460.444 158.226 461.292 161.459 461.287H281.509C281.611 461.354 281.717 461.414 281.827 461.466C282.178 461.632 282.561 461.719 282.949 461.718H394.311C394.699 461.719 395.082 461.633 395.433 461.467C395.783 461.3 396.092 461.058 396.337 460.757C396.582 460.456 396.756 460.104 396.848 459.728C396.939 459.351 396.946 458.958 396.866 458.578L392.516 437.482C392.391 436.898 392.068 436.376 391.603 436.002C391.138 435.628 390.558 435.426 389.961 435.43H306.671L306.658 435.399H372.055L366.435 391.365C368.793 390.731 371.13 390.011 373.443 389.204C387.508 384.298 400.306 376.325 410.91 365.864C421.515 355.402 429.66 342.714 434.756 328.717C439.853 314.72 441.773 299.764 440.378 284.934C438.982 270.103 434.306 255.769 426.689 242.968C423.087 236.916 418.871 231.278 414.119 226.139L460.493 179.765C460.745 179.513 460.946 179.213 461.082 178.883C461.219 178.553 461.289 178.199 461.289 177.842C461.289 177.485 461.219 177.132 461.082 176.802C460.946 176.472 460.745 176.172 460.493 175.919L455.611 171.037L463.205 163.443C464.267 162.381 464.267 160.659 463.205 159.597L442.694 139.086C441.632 138.024 439.91 138.024 438.848 139.086ZM310.947 390.409C302.85 387.931 295.073 384.43 287.811 379.974C277.323 373.538 268.125 365.242 260.658 355.515L305.489 433.172L310.947 390.409Z" fill="#B3C664"/>
<path fill-rule="evenodd" clip-rule="evenodd" d="M300.506 164.263V218.544H316.615C317.395 218.543 318.167 218.695 318.888 218.992C319.609 219.29 320.264 219.726 320.816 220.277C321.368 220.828 321.805 221.483 322.104 222.203C322.403 222.923 322.556 223.695 322.556 224.475C322.556 226.05 321.931 227.561 320.816 228.676C319.702 229.79 318.191 230.416 316.615 230.416H272.493C262.158 230.397 252.251 226.283 244.943 218.974C242.837 216.869 240.997 214.547 239.443 212.062C237.889 214.547 236.048 216.869 233.942 218.974C226.634 226.283 216.728 230.397 206.392 230.416H162.27C161.47 230.449 160.671 230.32 159.922 230.037C159.173 229.753 158.488 229.322 157.91 228.767C157.332 228.213 156.872 227.547 156.558 226.81C156.244 226.073 156.082 225.281 156.082 224.48C156.082 223.679 156.244 222.886 156.558 222.149C156.872 221.413 157.332 220.747 157.91 220.192C158.488 219.638 159.173 219.206 159.922 218.923C160.671 218.64 161.47 218.51 162.27 218.544H178.38V164.284H162.249C161.449 164.317 160.65 164.188 159.901 163.905C159.152 163.622 158.468 163.19 157.89 162.635C157.312 162.081 156.852 161.415 156.538 160.678C156.223 159.942 156.062 159.149 156.062 158.348C156.062 157.547 156.223 156.754 156.538 156.017C156.852 155.281 157.312 154.615 157.89 154.061C158.468 153.506 159.152 153.074 159.901 152.791C160.65 152.508 161.449 152.379 162.249 152.412H206.372C216.708 152.428 226.616 156.541 233.925 163.85C236.037 165.962 237.882 168.292 239.439 170.786C240.993 168.299 242.834 165.977 244.94 163.871C252.249 156.562 262.157 152.449 272.493 152.433H316.615C318.183 152.43 319.688 153.048 320.801 154.152C321.915 155.255 322.546 156.755 322.556 158.322C322.556 159.898 321.931 161.409 320.816 162.523C319.702 163.637 318.191 164.263 316.615 164.263H300.506ZM190.252 164.284V218.544H205.941V164.284H190.252ZM225.547 210.582C223.283 212.847 220.661 214.671 217.813 215.999V166.829C220.66 168.157 223.283 169.981 225.547 172.246C230.633 177.333 233.493 184.23 233.502 191.424C233.488 198.611 230.628 205.499 225.547 210.582ZM245.375 192.177C245.58 199.09 248.415 205.677 253.318 210.582C255.587 212.852 258.217 214.679 261.073 216.008V166.809C258.219 168.139 255.591 169.968 253.324 172.24C248.242 177.331 245.386 184.23 245.384 191.424C245.384 191.557 245.383 191.69 245.381 191.823C245.38 191.941 245.378 192.059 245.375 192.177ZM272.945 164.263V218.544H288.634V164.263H272.945Z" fill="#B3C664"/>
</g>
</g>
<defs>
<filter id="filter0_f_2605_20251" x="312.727" y="360.463" width="51.7979" height="51.7979" filterUnits="userSpaceOnUse" color-interpolation-filters="sRGB">
<feFlood flood-opacity="0" result="BackgroundImageFix"/>
<feBlend mode="normal" in="SourceGraphic" in2="BackgroundImageFix" result="shape"/>
<feGaussianBlur stdDeviation="5.5" result="effect1_foregroundBlur_2605_20251"/>
</filter>
<linearGradient id="paint0_linear_2605_20251" x1="225.637" y1="264.615" x2="225.637" y2="461.287" gradientUnits="userSpaceOnUse">
<stop stop-color="#E3E3E3"/>
<stop offset="1" stop-color="#ACA9A9"/>
</linearGradient>
<linearGradient id="paint1_linear_2605_20251" x1="225.642" y1="248.885" x2="225.642" y2="264.615" gradientUnits="userSpaceOnUse">
<stop stop-color="#D0D0D0"/>
<stop offset="1" stop-color="#BEBEBE"/>
</linearGradient>
<linearGradient id="paint2_linear_2605_20251" x1="225.629" y1="380.584" x2="225.629" y2="453.438" gradientUnits="userSpaceOnUse">
<stop stop-color="#929292"/>
<stop offset="1" stop-color="#606060"/>
</linearGradient>
<linearGradient id="paint3_linear_2605_20251" x1="431.252" y1="146.682" x2="455.609" y2="171.039" gradientUnits="userSpaceOnUse">
<stop stop-color="#9F9F9F"/>
<stop offset="0.322917" stop-color="#C7C7C7"/>
<stop offset="1" stop-color="#939393"/>
</linearGradient>
<linearGradient id="paint4_linear_2605_20251" x1="317.299" y1="265.941" x2="336.338" y2="284.979" gradientUnits="userSpaceOnUse">
<stop stop-color="#686868"/>
<stop offset="0.328125" stop-color="#818181"/>
<stop offset="1" stop-color="#686868"/>
</linearGradient>
<linearGradient id="paint5_linear_2605_20251" x1="372.598" y1="191.765" x2="410.545" y2="229.712" gradientUnits="userSpaceOnUse">
<stop stop-color="#D1CFCF"/>
<stop offset="0.322917" stop-color="#ECECEC"/>
<stop offset="1" stop-color="#B9B9B9"/>
</linearGradient>
<linearGradient id="paint6_linear_2605_20251" x1="309.178" y1="244.956" x2="357.333" y2="293.111" gradientUnits="userSpaceOnUse">
<stop stop-color="#6F6F6F"/>
<stop offset="0.322917" stop-color="#C7C7C7"/>
<stop offset="1" stop-color="#555555"/>
</linearGradient>
<linearGradient id="paint7_linear_2605_20251" x1="394.52" y1="225.464" x2="432.629" y2="269.924" gradientUnits="userSpaceOnUse">
<stop stop-color="#474747"/>
<stop offset="1" stop-color="#B0B0B0"/>
</linearGradient>
<linearGradient id="paint8_linear_2605_20251" x1="338.631" y1="355.712" x2="338.631" y2="435.399" gradientUnits="userSpaceOnUse">
<stop stop-color="#989898"/>
<stop offset="1" stop-color="#5C5C5C"/>
</linearGradient>
<linearGradient id="paint9_linear_2605_20251" x1="338.625" y1="366.671" x2="338.625" y2="396.469" gradientUnits="userSpaceOnUse">
<stop stop-color="#9C9C9C"/>
<stop offset="1" stop-color="#686868"/>
</linearGradient>
<linearGradient id="paint10_linear_2605_20251" x1="338.625" y1="366.671" x2="338.625" y2="396.469" gradientUnits="userSpaceOnUse">
<stop stop-color="#717171"/>
<stop offset="1" stop-color="#424242"/>
</linearGradient>
<linearGradient id="paint11_linear_2605_20251" x1="338.627" y1="435.429" x2="338.627" y2="461.717" gradientUnits="userSpaceOnUse">
<stop stop-color="#717171"/>
<stop offset="1" stop-color="#424242"/>
</linearGradient>
<linearGradient id="paint12_linear_2605_20251" x1="370.189" y1="194.05" x2="408.063" y2="231.925" gradientUnits="userSpaceOnUse">
<stop stop-color="#6F6F6F"/>
<stop offset="0.322917" stop-color="#C7C7C7"/>
<stop offset="1" stop-color="#555555"/>
</linearGradient>
<clipPath id="clip0_2605_20251">
<rect width="600" height="600" fill="white"/>
</clipPath>
</defs>
</svg>
