<svg width="600" height="600" viewBox="0 0 600 600" fill="none" xmlns="http://www.w3.org/2000/svg">
<g clip-path="url(#clip0_2605_20212)">
<rect width="600" height="600" fill="#FFF2F1"/>
<path d="M460.472 414.346L381.772 278.056V172.436H309.772V278.056L231.102 414.346C228.788 418.354 227.572 422.901 227.574 427.529C227.577 432.157 228.798 436.703 231.115 440.709C233.433 444.715 236.764 448.04 240.775 450.35C244.785 452.66 249.334 453.872 253.962 453.866H437.652C442.276 453.865 446.819 452.647 450.824 450.335C454.829 448.023 458.155 444.697 460.468 440.692C462.781 436.687 463.998 432.144 463.999 427.519C464 422.895 462.783 418.351 460.472 414.346Z" fill="url(#paint0_linear_2605_20212)"/>
<path d="M382.482 149.925H309.102C304.137 149.925 300.112 153.95 300.112 158.915V163.445C300.112 168.41 304.137 172.435 309.102 172.435H382.482C387.447 172.435 391.472 168.41 391.472 163.445V158.915C391.472 153.95 387.447 149.925 382.482 149.925Z" fill="url(#paint1_linear_2605_20212)"/>
<path d="M398.602 349.185C378.762 363.185 346.602 363.185 326.762 349.185L326.312 348.865C316.812 342.165 304.502 338.665 292.072 338.385C290.835 338.369 289.617 338.682 288.543 339.294C287.469 339.906 286.578 340.794 285.962 341.865L240.832 419.965C239.479 422.268 238.767 424.89 238.767 427.56C238.767 430.231 239.479 432.853 240.832 435.155C242.23 437.463 244.206 439.367 246.565 440.679C248.923 441.99 251.583 442.665 254.282 442.635H437.252C439.95 442.664 442.609 441.989 444.968 440.677C447.326 439.366 449.302 437.463 450.702 435.155C452.054 432.853 452.766 430.231 452.766 427.56C452.766 424.89 452.054 422.268 450.702 419.965L410.432 350.225C409.96 349.409 409.329 348.696 408.576 348.129C407.822 347.563 406.962 347.154 406.047 346.928C405.132 346.702 404.18 346.664 403.25 346.814C402.319 346.965 401.429 347.302 400.632 347.805C399.925 348.245 399.235 348.705 398.562 349.185H398.602Z" fill="url(#paint2_linear_2605_20212)"/>
<mask id="mask0_2605_20212" style="mask-type:alpha" maskUnits="userSpaceOnUse" x="227" y="172" width="238" height="282">
<path d="M460.476 414.345L381.776 278.055V172.435H309.776V278.055L231.106 414.345C228.793 418.353 227.577 422.9 227.579 427.528C227.582 432.156 228.803 436.702 231.12 440.708C233.437 444.714 236.769 448.04 240.78 450.349C244.79 452.659 249.338 453.871 253.966 453.865H437.656C442.281 453.864 446.824 452.646 450.829 450.334C454.834 448.022 458.16 444.696 460.473 440.691C462.785 436.686 464.003 432.143 464.004 427.518C464.004 422.894 462.788 418.35 460.476 414.345Z" fill="url(#paint3_linear_2605_20212)"/>
</mask>
<g mask="url(#mask0_2605_20212)">
<g style="mix-blend-mode:multiply" opacity="0.6" filter="url(#filter0_f_2605_20212)">
<path d="M183.433 301.404H160.843C159.843 301.409 158.863 301.687 158.008 302.207C157.154 302.727 156.457 303.469 155.992 304.355C155.527 305.241 155.313 306.237 155.371 307.236C155.43 308.235 155.759 309.199 156.323 310.024L175.793 338.604V446.864C175.793 448.721 176.531 450.501 177.844 451.814C179.156 453.127 180.937 453.864 182.793 453.864H284.033C285.89 453.864 287.67 453.127 288.983 451.814C290.296 450.501 291.033 448.721 291.033 446.864V308.444C291.033 306.588 290.296 304.807 288.983 303.495C287.67 302.182 285.89 301.444 284.033 301.444L183.433 301.404Z" fill="#8C8B8B"/>
</g>
</g>
<path d="M171.072 301.404H148.482C147.481 301.409 146.501 301.687 145.646 302.207C144.792 302.727 144.095 303.469 143.63 304.355C143.166 305.241 142.951 306.237 143.009 307.236C143.068 308.235 143.397 309.199 143.962 310.024L163.432 338.604V446.864C163.432 448.721 164.169 450.501 165.482 451.814C166.795 453.127 168.575 453.864 170.432 453.864H271.672C273.528 453.864 275.309 453.127 276.621 451.814C277.934 450.501 278.672 448.721 278.672 446.864V308.444C278.672 306.588 277.934 304.807 276.621 303.495C275.309 302.182 273.528 301.444 271.672 301.444L171.072 301.404Z" fill="url(#paint4_linear_2605_20212)"/>
<path d="M224.962 364.015C212.572 355.655 193.462 352.735 175.812 360.285C175.087 360.592 174.469 361.106 174.035 361.762C173.601 362.418 173.37 363.188 173.372 363.975V439.865C173.372 440.926 173.793 441.943 174.543 442.693C175.293 443.444 176.311 443.865 177.372 443.865H264.682C265.742 443.865 266.76 443.444 267.51 442.693C268.26 441.943 268.682 440.926 268.682 439.865V373.695C268.679 373.08 268.535 372.473 268.26 371.922C267.985 371.372 267.587 370.892 267.097 370.521C266.606 370.149 266.036 369.896 265.432 369.78C264.827 369.665 264.205 369.69 263.612 369.855C251.072 373.375 235.442 371.075 224.962 364.015Z" fill="url(#paint5_linear_2605_20212)"/>
<path d="M261.142 435.505H240.572C240.114 435.471 239.686 435.265 239.373 434.928C239.06 434.592 238.887 434.149 238.887 433.69C238.887 433.231 239.06 432.788 239.373 432.452C239.686 432.115 240.114 431.909 240.572 431.875H261.142C261.6 431.909 262.028 432.115 262.341 432.452C262.653 432.788 262.827 433.231 262.827 433.69C262.827 434.149 262.653 434.592 262.341 434.928C262.028 435.265 261.6 435.471 261.142 435.505Z" fill="#FFECEC"/>
<path d="M261.142 426.276H248.312C248.062 426.294 247.811 426.261 247.575 426.178C247.339 426.095 247.122 425.965 246.939 425.794C246.755 425.624 246.609 425.418 246.509 425.188C246.409 424.959 246.357 424.711 246.357 424.461C246.357 424.21 246.409 423.963 246.509 423.733C246.609 423.504 246.755 423.297 246.939 423.127C247.122 422.957 247.339 422.826 247.575 422.743C247.811 422.66 248.062 422.627 248.312 422.646H261.142C261.6 422.68 262.028 422.886 262.341 423.222C262.653 423.559 262.827 424.001 262.827 424.461C262.827 424.92 262.653 425.362 262.341 425.699C262.028 426.036 261.6 426.242 261.142 426.276Z" fill="#FFECEC"/>
<path d="M261.142 417.056H240.572C240.114 417.022 239.686 416.816 239.373 416.479C239.06 416.142 238.887 415.7 238.887 415.241C238.887 414.781 239.06 414.339 239.373 414.002C239.686 413.666 240.114 413.46 240.572 413.426H261.142C261.6 413.46 262.028 413.666 262.341 414.002C262.653 414.339 262.827 414.781 262.827 415.241C262.827 415.7 262.653 416.142 262.341 416.479C262.028 416.816 261.6 417.022 261.142 417.056Z" fill="#FFECEC"/>
<path d="M261.142 407.865H248.312C248.062 407.884 247.811 407.851 247.575 407.768C247.339 407.685 247.122 407.555 246.939 407.384C246.755 407.214 246.609 407.008 246.509 406.778C246.409 406.549 246.357 406.301 246.357 406.05C246.357 405.8 246.409 405.552 246.509 405.323C246.609 405.093 246.755 404.887 246.939 404.717C247.122 404.546 247.339 404.416 247.575 404.333C247.811 404.25 248.062 404.217 248.312 404.235H261.142C261.6 404.269 262.028 404.475 262.341 404.812C262.653 405.149 262.827 405.591 262.827 406.05C262.827 406.51 262.653 406.952 262.341 407.289C262.028 407.625 261.6 407.831 261.142 407.865Z" fill="#FFECEC"/>
<path d="M261.142 398.595H240.572C240.114 398.561 239.686 398.355 239.373 398.018C239.06 397.682 238.887 397.239 238.887 396.78C238.887 396.32 239.06 395.878 239.373 395.541C239.686 395.205 240.114 394.999 240.572 394.965H261.142C261.6 394.999 262.028 395.205 262.341 395.541C262.653 395.878 262.827 396.32 262.827 396.78C262.827 397.239 262.653 397.682 262.341 398.018C262.028 398.355 261.6 398.561 261.142 398.595Z" fill="#FFECEC"/>
<path d="M261.142 389.375H248.312C248.062 389.394 247.811 389.361 247.575 389.278C247.339 389.195 247.122 389.064 246.939 388.894C246.755 388.724 246.609 388.517 246.509 388.288C246.409 388.058 246.357 387.811 246.357 387.56C246.357 387.31 246.409 387.062 246.509 386.833C246.609 386.603 246.755 386.397 246.939 386.226C247.122 386.056 247.339 385.925 247.575 385.843C247.811 385.76 248.062 385.727 248.312 385.745H261.142C261.6 385.779 262.028 385.985 262.341 386.322C262.653 386.658 262.827 387.101 262.827 387.56C262.827 388.02 262.653 388.462 262.341 388.799C262.028 389.135 261.6 389.341 261.142 389.375Z" fill="#FFECEC"/>
<path d="M261.142 380.146H240.572C240.114 380.112 239.686 379.906 239.373 379.569C239.06 379.232 238.887 378.79 238.887 378.331C238.887 377.871 239.06 377.429 239.373 377.092C239.686 376.756 240.114 376.55 240.572 376.516H261.142C261.6 376.55 262.028 376.756 262.341 377.092C262.653 377.429 262.827 377.871 262.827 378.331C262.827 378.79 262.653 379.232 262.341 379.569C262.028 379.906 261.6 380.112 261.142 380.146Z" fill="#FFECEC"/>
<path d="M261.142 370.926H248.312C248.062 370.945 247.811 370.911 247.575 370.829C247.339 370.746 247.122 370.615 246.939 370.445C246.755 370.274 246.609 370.068 246.509 369.839C246.409 369.609 246.357 369.361 246.357 369.111C246.357 368.861 246.409 368.613 246.509 368.383C246.609 368.154 246.755 367.948 246.939 367.777C247.122 367.607 247.339 367.476 247.575 367.393C247.811 367.311 248.062 367.277 248.312 367.296H261.142C261.6 367.33 262.028 367.536 262.341 367.873C262.653 368.209 262.827 368.652 262.827 369.111C262.827 369.57 262.653 370.013 262.341 370.349C262.028 370.686 261.6 370.892 261.142 370.926Z" fill="#FFECEC"/>
<path d="M261.142 361.695H240.572C240.114 361.661 239.686 361.455 239.373 361.119C239.06 360.782 238.887 360.34 238.887 359.88C238.887 359.421 239.06 358.979 239.373 358.642C239.686 358.305 240.114 358.099 240.572 358.065H261.142C261.6 358.099 262.028 358.305 262.341 358.642C262.653 358.979 262.827 359.421 262.827 359.88C262.827 360.34 262.653 360.782 262.341 361.119C262.028 361.455 261.6 361.661 261.142 361.695Z" fill="#FFECEC"/>
<path d="M261.142 352.465H248.312C248.062 352.484 247.811 352.45 247.575 352.368C247.339 352.285 247.122 352.154 246.939 351.984C246.755 351.813 246.609 351.607 246.509 351.378C246.409 351.148 246.357 350.9 246.357 350.65C246.357 350.4 246.409 350.152 246.509 349.923C246.609 349.693 246.755 349.487 246.939 349.316C247.122 349.146 247.339 349.015 247.575 348.933C247.811 348.85 248.062 348.817 248.312 348.835H261.142C261.6 348.869 262.028 349.075 262.341 349.412C262.653 349.748 262.827 350.191 262.827 350.65C262.827 351.109 262.653 351.552 262.341 351.888C262.028 352.225 261.6 352.431 261.142 352.465Z" fill="#FFECEC"/>
<path d="M261.142 343.245H240.572C240.114 343.211 239.686 343.005 239.373 342.669C239.06 342.332 238.887 341.89 238.887 341.43C238.887 340.971 239.06 340.529 239.373 340.192C239.686 339.855 240.114 339.649 240.572 339.615H261.142C261.6 339.649 262.028 339.855 262.341 340.192C262.653 340.529 262.827 340.971 262.827 341.43C262.827 341.89 262.653 342.332 262.341 342.669C262.028 343.005 261.6 343.211 261.142 343.245Z" fill="#FFECEC"/>
<path d="M260.192 254.855L211.272 211.225L159.802 231.305L158.572 228.165L211.972 207.335L262.432 252.335L260.192 254.855Z" fill="#C7C7C7"/>
<path d="M233.242 157.415L210.074 208.584L213.144 209.974L236.312 158.805L233.242 157.415Z" fill="#C7C7C7"/>
<path d="M261.312 278.055C274.82 278.055 285.772 267.104 285.772 253.595C285.772 240.086 274.82 229.135 261.312 229.135C247.803 229.135 236.852 240.086 236.852 253.595C236.852 267.104 247.803 278.055 261.312 278.055Z" fill="url(#paint6_linear_2605_20212)"/>
<path d="M211.622 229.355C222.706 229.355 231.692 220.369 231.692 209.285C231.692 198.2 222.706 189.215 211.622 189.215C200.537 189.215 191.552 198.2 191.552 209.285C191.552 220.369 200.537 229.355 211.622 229.355Z" fill="url(#paint7_linear_2605_20212)"/>
<path d="M234.782 170.075C241.392 170.075 246.752 164.716 246.752 158.105C246.752 151.494 241.392 146.135 234.782 146.135C228.171 146.135 222.812 151.494 222.812 158.105C222.812 164.716 228.171 170.075 234.782 170.075Z" fill="url(#paint8_linear_2605_20212)"/>
<path d="M159.182 244.495C167.333 244.495 173.942 237.886 173.942 229.735C173.942 221.583 167.333 214.975 159.182 214.975C151.03 214.975 144.422 221.583 144.422 229.735C144.422 237.886 151.03 244.495 159.182 244.495Z" fill="url(#paint9_linear_2605_20212)"/>
<path opacity="0.54" d="M311.691 382.505C316.513 382.505 320.421 378.596 320.421 373.775C320.421 368.953 316.513 365.045 311.691 365.045C306.87 365.045 302.961 368.953 302.961 373.775C302.961 378.596 306.87 382.505 311.691 382.505Z" fill="url(#paint10_linear_2605_20212)"/>
<path opacity="0.54" d="M401.061 372.345C403.475 372.345 405.431 370.389 405.431 367.975C405.431 365.562 403.475 363.605 401.061 363.605C398.648 363.605 396.691 365.562 396.691 367.975C396.691 370.389 398.648 372.345 401.061 372.345Z" fill="url(#paint11_linear_2605_20212)"/>
<path opacity="0.54" d="M330.732 390.845C333.145 390.845 335.102 388.889 335.102 386.475C335.102 384.062 333.145 382.105 330.732 382.105C328.318 382.105 326.362 384.062 326.362 386.475C326.362 388.889 328.318 390.845 330.732 390.845Z" fill="url(#paint12_linear_2605_20212)"/>
<path opacity="0.54" d="M378.751 399.185C385.771 399.185 391.462 393.494 391.462 386.475C391.462 379.455 385.771 373.765 378.751 373.765C371.732 373.765 366.042 379.455 366.042 386.475C366.042 393.494 371.732 399.185 378.751 399.185Z" fill="url(#paint13_linear_2605_20212)"/>
<path opacity="0.54" d="M180.212 370.915C181.835 370.915 183.152 369.599 183.152 367.975C183.152 366.351 181.835 365.035 180.212 365.035C178.588 365.035 177.272 366.351 177.272 367.975C177.272 369.599 178.588 370.915 180.212 370.915Z" fill="url(#paint14_linear_2605_20212)"/>
<path opacity="0.54" d="M238.782 380.585C240.406 380.585 241.722 379.269 241.722 377.645C241.722 376.021 240.406 374.705 238.782 374.705C237.158 374.705 235.842 376.021 235.842 377.645C235.842 379.269 237.158 380.585 238.782 380.585Z" fill="url(#paint15_linear_2605_20212)"/>
<path opacity="0.54" d="M203.502 378.335C207.174 378.335 210.152 375.358 210.152 371.685C210.152 368.012 207.174 365.035 203.502 365.035C199.829 365.035 196.852 368.012 196.852 371.685C196.852 375.358 199.829 378.335 203.502 378.335Z" fill="url(#paint16_linear_2605_20212)"/>
<path opacity="0.54" d="M217.732 373.765C219.565 373.765 221.052 372.279 221.052 370.445C221.052 368.611 219.565 367.125 217.732 367.125C215.898 367.125 214.412 368.611 214.412 370.445C214.412 372.279 215.898 373.765 217.732 373.765Z" fill="url(#paint17_linear_2605_20212)"/>
<g style="mix-blend-mode:overlay">
<path d="M234.782 170.075C241.392 170.075 246.752 164.716 246.752 158.105C246.752 151.494 241.392 146.135 234.782 146.135C228.171 146.135 222.812 151.494 222.812 158.105C222.812 162.351 225.023 166.081 228.356 168.206L218.325 190.361C216.228 189.619 213.972 189.215 211.622 189.215C200.537 189.215 191.552 198.2 191.552 209.285C191.552 211.263 191.838 213.175 192.371 214.981L172.233 222.836C169.757 218.16 164.841 214.975 159.182 214.975C151.03 214.975 144.422 221.583 144.422 229.735C144.422 237.887 151.03 244.495 159.182 244.495C167.333 244.495 173.942 237.887 173.942 229.735C173.942 228.436 173.774 227.177 173.459 225.977L193.596 218.121C196.864 224.775 203.708 229.355 211.622 229.355C216.971 229.355 221.831 227.262 225.429 223.851L241.977 238.61C238.764 242.75 236.852 247.949 236.852 253.595C236.852 267.104 247.803 278.055 261.312 278.055C274.821 278.055 285.772 267.104 285.772 253.595C285.772 240.086 274.821 229.135 261.312 229.135C254.661 229.135 248.631 231.789 244.222 236.095L227.672 221.336C230.196 217.98 231.692 213.807 231.692 209.285C231.692 201.749 227.538 195.182 221.395 191.751L231.425 169.598C232.49 169.908 233.616 170.075 234.782 170.075Z" fill="#D96763"/>
<path d="M309.102 149.925H382.482C387.447 149.925 391.472 153.95 391.472 158.915V163.445C391.472 168.41 387.447 172.435 382.482 172.435L381.777 172.435V278.055L460.477 414.344C462.788 418.35 464.005 422.894 464.004 427.518C464.003 432.143 462.786 436.686 460.473 440.691C458.16 444.696 454.834 448.022 450.829 450.334C449.827 450.913 448.79 451.422 447.727 451.862C444.545 453.179 441.123 453.863 437.657 453.865L437.652 453.865L170.432 453.865C168.575 453.865 166.795 453.127 165.482 451.814C164.169 450.502 163.432 448.721 163.432 446.865V338.605L143.962 310.025C143.397 309.199 143.068 308.235 143.009 307.236C142.951 306.238 143.166 305.242 143.63 304.356C144.095 303.47 144.792 302.727 145.646 302.207C146.501 301.687 147.481 301.41 148.482 301.405H160.793L160.844 301.404L284.034 301.444C285.89 301.444 287.671 302.182 288.983 303.495C290.296 304.807 291.034 306.588 291.034 308.444V310.517L309.772 278.055V172.435L309.102 172.435C304.137 172.435 300.112 168.41 300.112 163.445V158.915C300.112 153.95 304.137 149.925 309.102 149.925Z" fill="#D96763"/>
</g>
</g>
<defs>
<filter id="filter0_f_2605_20212" x="132.362" y="278.404" width="181.672" height="198.46" filterUnits="userSpaceOnUse" color-interpolation-filters="sRGB">
<feFlood flood-opacity="0" result="BackgroundImageFix"/>
<feBlend mode="normal" in="SourceGraphic" in2="BackgroundImageFix" result="shape"/>
<feGaussianBlur stdDeviation="11.5" result="effect1_foregroundBlur_2605_20212"/>
</filter>
<linearGradient id="paint0_linear_2605_20212" x1="345.782" y1="446.496" x2="345.782" y2="191.006" gradientUnits="userSpaceOnUse">
<stop stop-color="#A8A8A8"/>
<stop offset="0.510417" stop-color="#D2D2D2"/>
<stop offset="1" stop-color="#EBEBEB"/>
</linearGradient>
<linearGradient id="paint1_linear_2605_20212" x1="345.79" y1="171.845" x2="345.79" y2="151.41" gradientUnits="userSpaceOnUse">
<stop stop-color="#D2D2D2"/>
<stop offset="1" stop-color="#EBEBEB"/>
</linearGradient>
<linearGradient id="paint2_linear_2605_20212" x1="426.794" y1="390.51" x2="278.915" y2="390.511" gradientUnits="userSpaceOnUse">
<stop stop-color="#777777"/>
<stop offset="1" stop-color="#B1B1B1"/>
</linearGradient>
<linearGradient id="paint3_linear_2605_20212" x1="345.786" y1="446.495" x2="345.786" y2="191.005" gradientUnits="userSpaceOnUse">
<stop stop-color="#F39996"/>
<stop offset="0.510417" stop-color="#FFB7B5"/>
<stop offset="1" stop-color="#FFDFDE"/>
</linearGradient>
<linearGradient id="paint4_linear_2605_20212" x1="210.833" y1="449.872" x2="210.833" y2="311.464" gradientUnits="userSpaceOnUse">
<stop stop-color="#A8A8A8"/>
<stop offset="0.510417" stop-color="#D2D2D2"/>
<stop offset="1" stop-color="#EBEBEB"/>
</linearGradient>
<linearGradient id="paint5_linear_2605_20212" x1="257.114" y1="399.897" x2="191.253" y2="399.897" gradientUnits="userSpaceOnUse">
<stop stop-color="#777777"/>
<stop offset="1" stop-color="#B1B1B1"/>
</linearGradient>
<linearGradient id="paint6_linear_2605_20212" x1="279.834" y1="253.595" x2="246.029" y2="253.595" gradientUnits="userSpaceOnUse">
<stop stop-color="#A08484"/>
<stop offset="1" stop-color="#777777"/>
</linearGradient>
<linearGradient id="paint7_linear_2605_20212" x1="226.82" y1="209.285" x2="199.082" y2="209.285" gradientUnits="userSpaceOnUse">
<stop stop-color="#B1B1B1"/>
<stop offset="1" stop-color="#777777"/>
</linearGradient>
<linearGradient id="paint8_linear_2605_20212" x1="243.846" y1="158.105" x2="227.303" y2="158.105" gradientUnits="userSpaceOnUse">
<stop stop-color="#B1B1B1"/>
<stop offset="1" stop-color="#777777"/>
</linearGradient>
<linearGradient id="paint9_linear_2605_20212" x1="170.359" y1="229.735" x2="149.96" y2="229.735" gradientUnits="userSpaceOnUse">
<stop stop-color="#B1B1B1"/>
<stop offset="1" stop-color="#777777"/>
</linearGradient>
<linearGradient id="paint10_linear_2605_20212" x1="311.691" y1="382.048" x2="311.691" y2="366.197" gradientUnits="userSpaceOnUse">
<stop stop-color="#A8A8A8"/>
<stop offset="0.510417" stop-color="#D2D2D2"/>
<stop offset="1" stop-color="#EBEBEB"/>
</linearGradient>
<linearGradient id="paint11_linear_2605_20212" x1="401.061" y1="372.117" x2="401.061" y2="364.182" gradientUnits="userSpaceOnUse">
<stop stop-color="#A8A8A8"/>
<stop offset="0.510417" stop-color="#D2D2D2"/>
<stop offset="1" stop-color="#EBEBEB"/>
</linearGradient>
<linearGradient id="paint12_linear_2605_20212" x1="330.732" y1="390.617" x2="330.732" y2="382.682" gradientUnits="userSpaceOnUse">
<stop stop-color="#A8A8A8"/>
<stop offset="0.510417" stop-color="#D2D2D2"/>
<stop offset="1" stop-color="#EBEBEB"/>
</linearGradient>
<linearGradient id="paint13_linear_2605_20212" x1="378.751" y1="398.519" x2="378.751" y2="375.442" gradientUnits="userSpaceOnUse">
<stop stop-color="#A8A8A8"/>
<stop offset="0.510417" stop-color="#D2D2D2"/>
<stop offset="1" stop-color="#EBEBEB"/>
</linearGradient>
<linearGradient id="paint14_linear_2605_20212" x1="180.212" y1="370.761" x2="180.212" y2="365.423" gradientUnits="userSpaceOnUse">
<stop stop-color="#A8A8A8"/>
<stop offset="0.510417" stop-color="#D2D2D2"/>
<stop offset="1" stop-color="#EBEBEB"/>
</linearGradient>
<linearGradient id="paint15_linear_2605_20212" x1="238.782" y1="380.431" x2="238.782" y2="375.093" gradientUnits="userSpaceOnUse">
<stop stop-color="#A8A8A8"/>
<stop offset="0.510417" stop-color="#D2D2D2"/>
<stop offset="1" stop-color="#EBEBEB"/>
</linearGradient>
<linearGradient id="paint16_linear_2605_20212" x1="203.501" y1="377.987" x2="203.501" y2="365.913" gradientUnits="userSpaceOnUse">
<stop stop-color="#A8A8A8"/>
<stop offset="0.510417" stop-color="#D2D2D2"/>
<stop offset="1" stop-color="#EBEBEB"/>
</linearGradient>
<linearGradient id="paint17_linear_2605_20212" x1="217.731" y1="373.591" x2="217.731" y2="367.563" gradientUnits="userSpaceOnUse">
<stop stop-color="#A8A8A8"/>
<stop offset="0.510417" stop-color="#D2D2D2"/>
<stop offset="1" stop-color="#EBEBEB"/>
</linearGradient>
<clipPath id="clip0_2605_20212">
<rect width="600" height="600" fill="white"/>
</clipPath>
</defs>
</svg>
