<svg width="600" height="600" viewBox="0 0 600 600" fill="none" xmlns="http://www.w3.org/2000/svg">
<g clip-path="url(#clip0_2605_20492)">
<rect width="600" height="600" fill="#F8F8F8"/>
<path d="M278.359 154.312H154.029C150.455 154.312 147.559 157.209 147.559 160.782V439.212C147.559 442.786 150.455 445.682 154.029 445.682H278.359C281.932 445.682 284.829 442.786 284.829 439.212V160.782C284.829 157.209 281.932 154.312 278.359 154.312Z" fill="url(#paint0_linear_2605_20492)"/>
<path d="M365.559 389.553H313.259V441.843H365.559V389.553Z" fill="url(#paint1_linear_2605_20492)"/>
<path d="M385.979 437.992H292.749C291.763 438.043 290.834 438.47 290.154 439.185C289.474 439.901 289.095 440.85 289.095 441.837C289.095 442.824 289.474 443.774 290.154 444.489C290.834 445.205 291.763 445.632 292.749 445.682H385.979C386.5 445.709 387.021 445.629 387.511 445.448C388.001 445.267 388.448 444.988 388.827 444.628C389.205 444.269 389.507 443.836 389.713 443.356C389.919 442.876 390.025 442.359 390.025 441.837C390.025 441.315 389.919 440.799 389.713 440.319C389.507 439.839 389.205 439.406 388.827 439.046C388.448 438.687 388.001 438.408 387.511 438.227C387.021 438.045 386.5 437.966 385.979 437.992Z" fill="#666666"/>
<path d="M284.829 186.543H147.559V218.913H284.829V186.543Z" fill="url(#paint2_linear_2605_20492)"/>
<path d="M284.829 232.902H147.559V265.272H284.829V232.902Z" fill="url(#paint3_linear_2605_20492)"/>
<path d="M242.648 304.522H189.738C188.545 304.522 187.578 305.49 187.578 306.682V315.852C187.578 317.045 188.545 318.012 189.738 318.012H242.648C243.841 318.012 244.808 317.045 244.808 315.852V306.682C244.808 305.49 243.841 304.522 242.648 304.522Z" fill="url(#paint4_linear_2605_20492)"/>
<mask id="mask0_2605_20492" style="mask-type:alpha" maskUnits="userSpaceOnUse" x="147" y="154" width="138" height="292">
<path d="M278.359 154.312H154.029C150.455 154.312 147.559 157.209 147.559 160.782V439.212C147.559 442.786 150.455 445.682 154.029 445.682H278.359C281.932 445.682 284.829 442.786 284.829 439.212V160.782C284.829 157.209 281.932 154.312 278.359 154.312Z" fill="url(#paint5_linear_2605_20492)"/>
</mask>
<g mask="url(#mask0_2605_20492)">
<g filter="url(#filter0_f_2605_20492)">
<path d="M213.828 227.782H452.828C453.974 227.765 455.111 227.976 456.174 228.403C457.237 228.831 458.204 229.466 459.018 230.271C459.833 231.076 460.479 232.036 460.919 233.094C461.358 234.152 461.582 235.287 461.578 236.432V395.192C461.578 396.136 461.392 397.07 461.031 397.942C460.669 398.814 460.14 399.606 459.472 400.273C458.804 400.94 458.011 401.468 457.139 401.829C456.267 402.189 455.332 402.374 454.388 402.372H212.388C211.445 402.374 210.51 402.189 209.638 401.829C208.765 401.468 207.973 400.94 207.305 400.273C206.637 399.606 206.107 398.814 205.746 397.942C205.384 397.07 205.198 396.136 205.198 395.192V236.542C205.181 235.396 205.392 234.258 205.819 233.195C206.247 232.132 206.881 231.164 207.687 230.349C208.492 229.533 209.451 228.886 210.509 228.446C211.567 228.005 212.702 227.779 213.848 227.782H213.828Z" fill="#3E3E3E"/>
</g>
</g>
<path d="M219.828 225.782H458.828C459.974 225.765 461.111 225.976 462.174 226.403C463.237 226.831 464.204 227.466 465.018 228.271C465.833 229.076 466.479 230.036 466.919 231.094C467.358 232.152 467.582 233.287 467.578 234.432V393.192C467.578 394.136 467.392 395.07 467.031 395.942C466.669 396.814 466.14 397.606 465.472 398.273C464.804 398.94 464.011 399.468 463.139 399.829C462.267 400.189 461.332 400.374 460.388 400.372H218.388C217.445 400.374 216.51 400.189 215.638 399.829C214.765 399.468 213.973 398.94 213.305 398.273C212.637 397.606 212.107 396.814 211.746 395.942C211.384 395.07 211.198 394.136 211.198 393.192V234.542C211.181 233.396 211.392 232.258 211.819 231.195C212.247 230.132 212.881 229.164 213.687 228.349C214.492 227.533 215.451 226.886 216.509 226.446C217.567 226.005 218.702 225.779 219.848 225.782H219.828Z" fill="#8C8C8C"/>
<path d="M460.888 385.492V240.682C460.888 239.599 460.675 238.527 460.26 237.527C459.845 236.526 459.238 235.618 458.471 234.852C457.705 234.087 456.796 233.48 455.795 233.067C454.794 232.653 453.721 232.441 452.638 232.442H226.098C223.913 232.442 221.817 233.311 220.272 234.856C218.727 236.401 217.858 238.497 217.858 240.682V385.482C217.858 387.668 218.727 389.764 220.272 391.309C221.817 392.854 223.913 393.722 226.098 393.722H452.638C453.72 393.724 454.792 393.512 455.792 393.099C456.793 392.686 457.702 392.08 458.468 391.316C459.234 390.552 459.842 389.644 460.257 388.645C460.673 387.646 460.887 386.574 460.888 385.492Z" fill="url(#paint6_linear_2605_20492)"/>
<g filter="url(#filter1_f_2605_20492)">
<path d="M302.969 393.722H254.679L322.279 232.452H370.569L302.969 393.722Z" fill="url(#paint7_linear_2605_20492)"/>
</g>
<g filter="url(#filter2_f_2605_20492)">
<path d="M340.559 393.722H317.229L384.829 232.452H408.159L340.559 393.722Z" fill="url(#paint8_linear_2605_20492)"/>
</g>
<path d="M216.198 430.933C222.295 430.933 227.238 425.99 227.238 419.893C227.238 413.795 222.295 408.853 216.198 408.853C210.101 408.853 205.158 413.795 205.158 419.893C205.158 425.99 210.101 430.933 216.198 430.933Z" fill="#999999"/>
<path d="M216.199 427.092C220.175 427.092 223.399 423.869 223.399 419.892C223.399 415.916 220.175 412.692 216.199 412.692C212.223 412.692 208.999 415.916 208.999 419.892C208.999 423.869 212.223 427.092 216.199 427.092Z" stroke="white" stroke-miterlimit="10"/>
<path d="M178.698 200.763H166.098C165.021 200.763 164.148 201.636 164.148 202.713V202.723C164.148 203.8 165.021 204.673 166.098 204.673H178.698C179.775 204.673 180.648 203.8 180.648 202.723V202.713C180.648 201.636 179.775 200.763 178.698 200.763Z" fill="#E6E6E6"/>
<path d="M178.698 247.133H166.098C165.021 247.133 164.148 248.006 164.148 249.083V249.093C164.148 250.17 165.021 251.043 166.098 251.043H178.698C179.775 251.043 180.648 250.17 180.648 249.093V249.083C180.648 248.006 179.775 247.133 178.698 247.133Z" fill="#E6E6E6"/>
<path d="M403.319 445.683C402.822 445.683 402.334 445.556 401.901 445.313C401.468 445.07 401.105 444.72 400.846 444.296C400.588 443.872 400.444 443.388 400.427 442.892C400.409 442.396 400.521 441.903 400.749 441.463C403.059 437.103 409.289 423.933 426.019 423.933C442.749 423.933 448.749 437.203 450.789 441.573C450.994 442.013 451.085 442.498 451.053 442.983C451.021 443.468 450.867 443.936 450.606 444.346C450.345 444.756 449.985 445.093 449.559 445.327C449.133 445.56 448.655 445.683 448.169 445.683H403.319Z" fill="url(#paint9_linear_2605_20492)"/>
</g>
<defs>
<filter id="filter0_f_2605_20492" x="173.197" y="195.781" width="320.381" height="238.591" filterUnits="userSpaceOnUse" color-interpolation-filters="sRGB">
<feFlood flood-opacity="0" result="BackgroundImageFix"/>
<feBlend mode="normal" in="SourceGraphic" in2="BackgroundImageFix" result="shape"/>
<feGaussianBlur stdDeviation="16" result="effect1_foregroundBlur_2605_20492"/>
</filter>
<filter id="filter1_f_2605_20492" x="248.679" y="226.452" width="127.89" height="173.27" filterUnits="userSpaceOnUse" color-interpolation-filters="sRGB">
<feFlood flood-opacity="0" result="BackgroundImageFix"/>
<feBlend mode="normal" in="SourceGraphic" in2="BackgroundImageFix" result="shape"/>
<feGaussianBlur stdDeviation="3" result="effect1_foregroundBlur_2605_20492"/>
</filter>
<filter id="filter2_f_2605_20492" x="311.229" y="226.452" width="102.93" height="173.27" filterUnits="userSpaceOnUse" color-interpolation-filters="sRGB">
<feFlood flood-opacity="0" result="BackgroundImageFix"/>
<feBlend mode="normal" in="SourceGraphic" in2="BackgroundImageFix" result="shape"/>
<feGaussianBlur stdDeviation="3" result="effect1_foregroundBlur_2605_20492"/>
</filter>
<linearGradient id="paint0_linear_2605_20492" x1="216.194" y1="154.312" x2="216.194" y2="445.682" gradientUnits="userSpaceOnUse">
<stop stop-color="#A5A5A5"/>
<stop offset="1" stop-color="#676767"/>
</linearGradient>
<linearGradient id="paint1_linear_2605_20492" x1="339.409" y1="389.553" x2="339.409" y2="441.843" gradientUnits="userSpaceOnUse">
<stop stop-color="#4A4A4A"/>
<stop offset="0.648419" stop-color="#B0B0B0"/>
</linearGradient>
<linearGradient id="paint2_linear_2605_20492" x1="216.194" y1="186.543" x2="216.194" y2="218.913" gradientUnits="userSpaceOnUse">
<stop stop-color="#BFBFBF"/>
<stop offset="1" stop-color="#A5A5A5"/>
</linearGradient>
<linearGradient id="paint3_linear_2605_20492" x1="216.194" y1="232.902" x2="216.194" y2="265.272" gradientUnits="userSpaceOnUse">
<stop stop-color="#BFBFBF"/>
<stop offset="1" stop-color="#A5A5A5"/>
</linearGradient>
<linearGradient id="paint4_linear_2605_20492" x1="216.193" y1="304.522" x2="216.193" y2="318.012" gradientUnits="userSpaceOnUse">
<stop stop-color="#6D6D6D"/>
<stop offset="1" stop-color="#575757"/>
</linearGradient>
<linearGradient id="paint5_linear_2605_20492" x1="216.194" y1="154.312" x2="216.194" y2="445.682" gradientUnits="userSpaceOnUse">
<stop stop-color="#A5A5A5"/>
<stop offset="1" stop-color="#636363"/>
</linearGradient>
<linearGradient id="paint6_linear_2605_20492" x1="339.373" y1="232.442" x2="339.373" y2="393.722" gradientUnits="userSpaceOnUse">
<stop stop-color="#EEEDED"/>
<stop offset="1" stop-color="#B5B5B5"/>
</linearGradient>
<linearGradient id="paint7_linear_2605_20492" x1="312.624" y1="232.452" x2="312.624" y2="393.722" gradientUnits="userSpaceOnUse">
<stop stop-color="#FFFEFE"/>
<stop offset="1" stop-color="#E6E6E6" stop-opacity="0"/>
</linearGradient>
<linearGradient id="paint8_linear_2605_20492" x1="362.694" y1="232.452" x2="362.694" y2="393.722" gradientUnits="userSpaceOnUse">
<stop stop-color="#FFFEFE"/>
<stop offset="1" stop-color="#E6E6E6" stop-opacity="0"/>
</linearGradient>
<linearGradient id="paint9_linear_2605_20492" x1="425.742" y1="423.933" x2="425.742" y2="445.683" gradientUnits="userSpaceOnUse">
<stop stop-color="#A0A0A0"/>
<stop offset="1" stop-color="#848484"/>
</linearGradient>
<clipPath id="clip0_2605_20492">
<rect width="600" height="600" fill="white"/>
</clipPath>
</defs>
</svg>
