<svg width="600" height="600" viewBox="0 0 600 600" fill="none" xmlns="http://www.w3.org/2000/svg">
<g clip-path="url(#clip0_2605_21062)">
<rect width="600" height="600" fill="#F0FBE7"/>
<path d="M132.402 181.699H467.564V437.887H132.402V181.699Z" fill="url(#paint0_linear_2605_21062)"/>
<path fill-rule="evenodd" clip-rule="evenodd" d="M125.816 184.137C125.816 179.166 129.846 175.137 134.816 175.137H465.181C470.151 175.137 474.181 179.166 474.181 184.137V435.527C474.181 440.497 470.151 444.527 465.181 444.527H134.816C129.846 444.527 125.816 440.497 125.816 435.527V184.137ZM148.019 188.339C143.048 188.339 139.019 192.368 139.019 197.339V422.324C139.019 427.295 143.048 431.324 148.019 431.324H451.979C456.949 431.324 460.979 427.295 460.979 422.324V197.339C460.979 192.368 456.949 188.339 451.979 188.339H148.019Z" fill="url(#paint1_linear_2605_21062)"/>
<circle cx="300.002" cy="430.348" r="12.157" fill="#A1A1A1"/>
<path d="M299.088 193.032V427.75C302.759 422.448 308.798 419.284 315.246 419.284H451.432C452.537 419.284 453.432 418.389 453.432 417.284V179.674C453.432 178.569 452.537 177.674 451.432 177.674H314.447C305.965 177.674 299.088 184.55 299.088 193.032Z" fill="url(#paint2_linear_2605_21062)"/>
<path d="M299.096 190.667V427.74L297.813 425.976C294.688 421.678 290.014 418.763 284.779 417.847L160.551 396.119C159.594 395.951 158.895 395.12 158.895 394.149V156.581C158.895 155.345 160.006 154.404 161.225 154.608L286.271 175.519C293.672 176.757 299.096 183.163 299.096 190.667Z" fill="url(#paint3_linear_2605_21062)"/>
<path d="M299.097 188.011V427.723L296.604 424.122C294.404 420.944 291.349 418.453 287.793 416.939L188.951 374.835C188.214 374.521 187.735 373.797 187.735 372.995V135.671C187.735 134.253 189.169 133.286 190.484 133.816L289.486 173.768C295.294 176.112 299.097 181.748 299.097 188.011Z" fill="url(#paint4_linear_2605_21062)"/>
<path d="M299.086 184.034V427.749L293.225 419.283L233.833 354.077C233.497 353.709 233.311 353.229 233.311 352.731V116.723C233.311 114.941 235.466 114.049 236.725 115.309L294.588 173.174C297.468 176.054 299.086 179.961 299.086 184.034Z" fill="url(#paint5_linear_2605_21062)"/>
<path d="M342.723 347.52C340.514 347.52 338.723 345.729 338.723 343.52V244.441C338.723 242.232 340.514 240.441 342.723 240.441H409.385C411.594 240.441 413.385 242.232 413.385 244.441V257.46C413.385 259.669 411.594 261.46 409.385 261.46H368.603C366.394 261.46 364.603 263.251 364.603 265.46V279.419C364.603 281.628 366.394 283.419 368.603 283.419H405.568C407.777 283.419 409.568 285.21 409.568 287.419V300.49C409.568 302.699 407.777 304.49 405.568 304.49H368.603C366.394 304.49 364.603 306.281 364.603 308.49V322.501C364.603 324.711 366.394 326.501 368.603 326.501H409.385C411.594 326.501 413.385 328.292 413.385 330.501V343.52C413.385 345.729 411.594 347.52 409.385 347.52H342.723Z" fill="#676767"/>
<g style="mix-blend-mode:overlay">
<path fill-rule="evenodd" clip-rule="evenodd" d="M296.247 175.137H465.181C470.151 175.137 474.181 179.167 474.181 184.137V435.527C474.181 440.497 470.151 444.527 465.181 444.527H134.816C129.846 444.527 125.816 440.497 125.816 435.527V184.137C125.816 179.167 129.846 175.137 134.816 175.137H158.895V156.581C158.895 155.345 160.006 154.404 161.225 154.608L187.736 159.042V135.671C187.736 134.253 189.17 133.285 190.484 133.816L233.311 151.099V116.723C233.311 114.941 235.465 114.049 236.725 115.309L294.588 173.174C295.199 173.785 295.753 174.442 296.247 175.137Z" fill="#7AB14E"/>
</g>
</g>
<defs>
<linearGradient id="paint0_linear_2605_21062" x1="132.402" y1="309.793" x2="279.561" y2="309.793" gradientUnits="userSpaceOnUse">
<stop stop-color="#C5C5C5"/>
<stop offset="1" stop-color="#A2A2A2"/>
</linearGradient>
<linearGradient id="paint1_linear_2605_21062" x1="125.816" y1="175.137" x2="299.999" y2="444.527" gradientUnits="userSpaceOnUse">
<stop stop-color="#8E8E8E"/>
<stop offset="1" stop-color="#707070"/>
</linearGradient>
<linearGradient id="paint2_linear_2605_21062" x1="299.088" y1="302.712" x2="453.432" y2="302.712" gradientUnits="userSpaceOnUse">
<stop stop-color="#D5D5D5"/>
<stop offset="0.338542" stop-color="#EEEEEE"/>
</linearGradient>
<linearGradient id="paint3_linear_2605_21062" x1="158.896" y1="247.298" x2="299.096" y2="247.298" gradientUnits="userSpaceOnUse">
<stop stop-color="#DEDEDE"/>
<stop offset="1" stop-color="#C4C4C4"/>
</linearGradient>
<linearGradient id="paint4_linear_2605_21062" x1="187.736" y1="230.367" x2="288.027" y2="230.367" gradientUnits="userSpaceOnUse">
<stop offset="0.130208" stop-color="#F0F0F0"/>
<stop offset="1" stop-color="#DADADA"/>
</linearGradient>
<linearGradient id="paint5_linear_2605_21062" x1="233.311" y1="243.065" x2="288.028" y2="247.298" gradientUnits="userSpaceOnUse">
<stop stop-color="white"/>
<stop offset="1" stop-color="#E3E3E3"/>
</linearGradient>
<clipPath id="clip0_2605_21062">
<rect width="600" height="600" fill="white"/>
</clipPath>
</defs>
</svg>
