<svg width="600" height="600" viewBox="0 0 600 600" fill="none" xmlns="http://www.w3.org/2000/svg">
<g clip-path="url(#clip0_2605_20433)">
<rect width="600" height="600" fill="#FDF6EF"/>
<path d="M269.331 428.9C347.452 428.9 410.781 365.571 410.781 287.45C410.781 209.329 347.452 146 269.331 146C191.21 146 127.881 209.329 127.881 287.45C127.881 365.571 191.21 428.9 269.331 428.9Z" fill="url(#paint0_radial_2605_20433)"/>
<path d="M269.331 395.18C328.828 395.18 377.061 346.947 377.061 287.45C377.061 227.952 328.828 179.72 269.331 179.72C209.833 179.72 161.601 227.952 161.601 287.45C161.601 346.947 209.833 395.18 269.331 395.18Z" fill="url(#paint1_radial_2605_20433)"/>
<path d="M269.331 361.46C310.206 361.46 343.341 328.325 343.341 287.45C343.341 246.576 310.206 213.44 269.331 213.44C228.457 213.44 195.321 246.576 195.321 287.45C195.321 328.325 228.457 361.46 269.331 361.46Z" fill="url(#paint2_radial_2605_20433)"/>
<path d="M269.331 327.74C291.583 327.74 309.621 309.702 309.621 287.45C309.621 265.199 291.583 247.16 269.331 247.16C247.079 247.16 229.041 265.199 229.041 287.45C229.041 309.702 247.079 327.74 269.331 327.74Z" fill="url(#paint3_radial_2605_20433)"/>
<path d="M269.331 219.71V221.07C269.381 220.618 269.381 220.162 269.331 219.71Z" fill="#CCCCCC"/>
<path d="M130.681 259.31C131.481 255.35 132.448 251.453 133.581 247.62C131.401 250.07 130.151 252.62 130.151 255.35C130.14 256.689 130.318 258.022 130.681 259.31Z" fill="#CCCCCC"/>
<path d="M351.041 287.45C349.991 290.092 348.389 292.478 346.341 294.45C334.751 305.77 324.951 289.32 321.861 303.86C318.771 318.4 361.021 311.99 346.341 323.42C331.661 334.85 330.101 345 331.991 356.35C333.881 367.7 312.581 391.35 293.421 392.42C274.261 393.49 283.721 370.78 278.571 351.2C273.421 331.62 228.071 335.74 218.791 303.9C210.111 274.13 245.611 265.69 269.331 268.9V244.7C253.741 245.38 240.331 248.37 240.331 239.85C240.191 226.18 268.181 230.99 269.331 221.03V219.67C269.34 219.523 269.34 219.376 269.331 219.23C269.16 218.287 269.16 217.322 269.331 216.38V191.38C254.961 196.62 237.561 214.98 228.071 204.75C214.671 190.32 252.801 182.08 262.071 172.8C269.301 165.57 260.851 152.06 256.781 146.47C236.475 148.241 216.797 154.406 199.111 164.54C206.751 172.76 225.111 195.54 208.471 208.88C190.881 223 146.271 233.36 133.581 247.62C132.447 251.446 131.481 255.343 130.681 259.31C134.441 272.19 157.601 264.17 164.201 288.56C171.381 315.12 173.441 311 189.931 333.68C205.751 355.43 167.501 357.27 177.121 394.68C197.646 412.324 222.802 423.709 249.604 427.484C276.406 431.259 303.728 427.265 328.328 415.975C352.928 404.686 373.772 386.576 388.387 363.794C403.002 341.013 410.774 314.516 410.781 287.45H351.041ZM355.881 362.53C348.661 371.81 337.331 377.99 340.421 366.66C343.511 355.33 360.001 337.8 360.001 337.8C372.361 338.83 363.081 353.26 355.881 362.53Z" fill="url(#paint4_radial_2605_20433)"/>
<path d="M269.291 219.27C269.3 219.416 269.3 219.563 269.291 219.71V216.42C269.12 217.362 269.12 218.328 269.291 219.27Z" fill="#CCCCCC"/>
<path d="M133.581 247.62C146.271 233.36 190.881 223 208.481 209C225.161 195.66 206.761 172.88 199.121 164.66C167.395 182.828 143.913 212.55 133.581 247.62Z" fill="url(#paint5_radial_2605_20433)"/>
<path d="M189.931 333.68C173.441 311 171.381 315.12 164.201 288.56C157.601 264.17 134.441 272.19 130.681 259.31C128.818 268.574 127.88 278 127.881 287.45C127.859 307.823 132.249 327.959 140.749 346.475C149.249 364.99 161.657 381.446 177.121 394.71C167.501 357.27 205.751 355.43 189.931 333.68Z" fill="url(#paint6_radial_2605_20433)"/>
<path d="M240.281 239.89C240.371 248.41 253.741 245.42 269.281 244.74V221.07C268.131 231 240.141 226.22 240.281 239.89Z" fill="url(#paint7_radial_2605_20433)"/>
<path d="M262.081 172.89C252.801 182.17 214.671 190.41 228.081 204.89C237.571 215.12 254.971 196.76 269.341 191.52V146C265.111 146 260.931 146.2 256.801 146.56C260.881 152.15 269.311 165.66 262.081 172.89Z" fill="url(#paint8_radial_2605_20433)"/>
<path d="M269.331 268.94C245.611 265.69 210.111 274.13 218.791 303.94C228.071 335.78 273.411 331.65 278.571 351.24C283.731 370.83 274.251 393.49 293.421 392.46C312.591 391.43 333.881 367.73 331.991 356.39C330.101 345.05 331.651 334.93 346.341 323.5C361.031 312.07 318.761 318.5 321.861 303.94C324.961 289.38 334.751 305.85 346.341 294.53C348.389 292.559 349.992 290.172 351.041 287.53H269.331V268.94Z" fill="url(#paint9_radial_2605_20433)"/>
<path d="M359.991 337.8C359.991 337.8 343.501 355.32 340.411 366.66C337.321 378 348.651 371.81 355.871 362.53C363.091 353.25 372.361 338.83 359.991 337.8Z" fill="url(#paint10_radial_2605_20433)"/>
<g filter="url(#filter0_i_2605_20433)">
<path d="M269.331 146C241.355 146 214.007 154.296 190.746 169.839C167.484 185.381 149.354 207.473 138.648 233.319C127.942 259.166 125.141 287.607 130.599 315.046C136.057 342.484 149.529 367.688 169.311 387.47C189.093 407.252 214.297 420.724 241.735 426.182C269.174 431.64 297.615 428.839 323.461 418.133C349.308 407.427 371.4 389.297 386.942 366.035C402.485 342.774 410.781 315.426 410.781 287.45H269.331V146Z" fill="#C0C0C0" fill-opacity="0.01"/>
</g>
<mask id="mask0_2605_20433" style="mask-type:alpha" maskUnits="userSpaceOnUse" x="127" y="146" width="284" height="283">
<path d="M269.331 428.9C347.452 428.9 410.781 365.571 410.781 287.45C410.781 209.329 347.452 146 269.331 146C191.21 146 127.881 209.329 127.881 287.45C127.881 365.571 191.21 428.9 269.331 428.9Z" fill="url(#paint11_radial_2605_20433)"/>
</mask>
<g mask="url(#mask0_2605_20433)">
<g filter="url(#filter1_f_2605_20433)">
<path fill-rule="evenodd" clip-rule="evenodd" d="M353.48 279.632C354.282 281.552 355.479 283.27 356.984 284.682C355.369 284.896 353.758 285.163 352.154 285.482C337.35 288.425 323.753 295.685 313.083 306.342C302.412 316.999 295.148 330.576 292.208 345.355C289.268 360.133 290.784 375.451 296.566 389.369C302.347 403.287 312.134 415.182 324.688 423.548C337.242 431.914 351.999 436.376 367.094 436.369C387.323 436.337 406.713 428.298 421.013 414.016C435.313 399.734 443.355 380.373 443.376 360.181C443.373 345.114 438.895 330.385 430.507 317.859C422.118 305.332 410.197 295.57 396.25 289.807C390.087 287.26 383.65 285.545 377.108 284.678C377.225 284.567 377.341 284.455 377.455 284.341C380.202 281.591 381.746 277.868 381.752 273.986C381.752 271.081 380.889 268.242 379.271 265.828C377.654 263.414 375.355 261.533 372.666 260.423C369.977 259.314 367.019 259.026 364.166 259.596C361.313 260.166 358.693 261.568 356.639 263.624C354.585 265.681 353.188 268.3 352.626 271.15C352.063 273.999 352.361 276.951 353.48 279.632ZM367.094 266.099C365.532 266.099 364.004 266.561 362.705 267.428C361.405 268.295 360.393 269.526 359.795 270.968C359.197 272.409 359.04 273.994 359.345 275.524C359.65 277.054 360.402 278.46 361.507 279.563C362.612 280.666 364.02 281.417 365.553 281.721C367.086 282.025 368.674 281.869 370.118 281.272C371.562 280.675 372.796 279.664 373.664 278.367C374.532 277.07 374.995 275.546 374.995 273.986C374.993 271.895 374.159 269.891 372.678 268.412C371.197 266.934 369.189 266.102 367.094 266.099Z" fill="#444444"/>
</g>
</g>
<path d="M377.094 429.592C415.485 429.592 446.608 398.526 446.608 360.203C446.608 321.881 415.485 290.814 377.094 290.814C338.702 290.814 307.58 321.881 307.58 360.203C307.58 398.526 338.702 429.592 377.094 429.592Z" fill="#F2F2F2"/>
<path d="M377.094 427.604C410.708 427.604 437.958 400.403 437.958 366.849C437.958 333.295 410.708 306.094 377.094 306.094C343.479 306.094 316.229 333.295 316.229 366.849C316.229 400.403 343.479 427.604 377.094 427.604Z" fill="url(#paint12_linear_2605_20433)"/>
<path d="M377.094 290.803C363.342 290.803 349.899 294.874 338.466 302.5C327.032 310.127 318.121 320.967 312.859 333.649C307.598 346.332 306.222 360.287 308.906 373.75C311.591 387.213 318.215 399.579 327.94 409.283C337.666 418.988 350.056 425.596 363.544 428.272C377.032 430.947 391.012 429.569 403.715 424.313C416.419 419.057 427.276 410.159 434.913 398.743C442.55 387.327 446.623 373.907 446.619 360.181C446.613 341.778 439.286 324.132 426.248 311.122C413.21 298.111 395.529 290.803 377.094 290.803ZM377.094 427.603C365.057 427.601 353.29 424.036 343.282 417.359C333.275 410.682 325.475 401.192 320.87 390.09C316.265 378.989 315.061 366.773 317.411 354.989C319.761 343.204 325.558 332.38 334.071 323.884C342.584 315.388 353.429 309.603 365.235 307.26C377.041 304.916 389.278 306.12 400.399 310.719C411.52 315.318 421.025 323.105 427.713 333.096C434.4 343.086 437.97 354.832 437.97 366.848C437.97 374.828 436.395 382.729 433.336 390.101C430.276 397.472 425.792 404.171 420.139 409.812C414.486 415.454 407.775 419.929 400.389 422.982C393.004 426.034 385.088 427.605 377.094 427.603Z" fill="#A7A7A7"/>
<path d="M377.094 436.369C361.999 436.376 347.242 431.914 334.688 423.548C322.134 415.182 312.347 403.287 306.566 389.369C300.784 375.451 299.268 360.133 302.208 345.355C305.148 330.576 312.412 316.999 323.083 306.342C333.753 295.685 347.35 288.425 362.154 285.482C376.958 282.539 392.303 284.044 406.25 289.807C420.197 295.57 432.118 305.332 440.507 317.859C448.895 330.385 453.373 345.114 453.376 360.181C453.355 380.373 445.313 399.734 431.013 414.016C416.713 428.298 397.323 436.337 377.094 436.369ZM377.094 297.58C364.688 297.58 352.561 301.253 342.246 308.132C331.931 315.012 323.892 324.791 319.144 336.232C314.397 347.672 313.154 360.261 315.575 372.407C317.995 384.552 323.969 395.708 332.741 404.465C341.513 413.221 352.69 419.184 364.857 421.6C377.024 424.016 389.636 422.776 401.097 418.037C412.559 413.298 422.355 405.273 429.247 394.977C436.14 384.68 439.818 372.575 439.818 360.192C439.801 343.591 433.187 327.674 421.428 315.934C409.669 304.194 393.725 297.59 377.094 297.569V297.58Z" fill="#7A7A7A"/>
<path d="M377.094 288.661C374.184 288.67 371.338 287.816 368.914 286.209C366.491 284.602 364.599 282.313 363.48 279.632C362.36 276.951 362.063 273.999 362.625 271.15C363.188 268.3 364.584 265.681 366.639 263.624C368.693 261.568 371.312 260.166 374.166 259.596C377.019 259.026 379.977 259.314 382.666 260.423C385.355 261.533 387.653 263.414 389.271 265.828C390.888 268.242 391.752 271.081 391.752 273.986C391.746 277.868 390.201 281.591 387.455 284.341C384.708 287.09 380.984 288.644 377.094 288.661ZM377.094 266.099C375.531 266.099 374.004 266.561 372.704 267.428C371.405 268.295 370.392 269.526 369.794 270.968C369.196 272.409 369.04 273.994 369.345 275.524C369.65 277.054 370.402 278.46 371.507 279.563C372.612 280.666 374.02 281.417 375.552 281.721C377.085 282.025 378.674 281.869 380.118 281.272C381.561 280.675 382.795 279.664 383.663 278.367C384.532 277.07 384.995 275.546 384.995 273.986C384.992 271.895 384.159 269.891 382.678 268.412C381.197 266.934 379.188 266.102 377.094 266.099Z" fill="#7A7A7A"/>
<g style="mix-blend-mode:multiply">
<path d="M377.094 406.843C367.851 406.845 358.814 404.111 351.127 398.987C343.441 393.863 337.449 386.578 333.909 378.055C330.37 369.531 329.442 360.151 331.244 351.102C333.045 342.052 337.494 333.738 344.028 327.213C350.563 320.687 358.889 316.242 367.954 314.44C377.02 312.637 386.417 313.559 394.958 317.088C403.498 320.617 410.799 326.594 415.936 334.265C421.073 341.935 423.816 350.954 423.818 360.181C423.809 372.55 418.885 384.41 410.125 393.159C401.365 401.907 389.485 406.828 377.094 406.843ZM377.094 316.946C368.522 316.946 360.143 319.484 353.016 324.238C345.889 328.992 340.335 335.749 337.056 343.654C333.776 351.56 332.919 360.258 334.593 368.65C336.267 377.042 340.397 384.749 346.459 390.798C352.522 396.847 360.246 400.965 368.653 402.631C377.061 404.298 385.775 403.438 393.693 400.161C401.611 396.883 408.377 391.336 413.136 384.219C417.895 377.103 420.433 368.737 420.429 360.181C420.411 348.716 415.839 337.726 407.716 329.621C399.592 321.516 388.58 316.958 377.094 316.946Z" fill="#D8D8D8"/>
</g>
<path d="M370.898 353.744L343.267 394.079L383.674 366.497C383.674 366.497 376.081 371.682 370.898 366.497C365.715 361.312 370.898 353.744 370.898 353.744Z" fill="#626262"/>
<path opacity="0.18" d="M372.054 365.464L349.495 332.511L382.508 355.029C382.508 355.029 376.313 350.8 372.076 355.029C367.839 359.258 372.054 365.464 372.054 365.464Z" fill="#4D4D4D"/>
<path opacity="0.18" d="M371.944 365.343L404.957 387.862L382.398 354.908C382.398 354.908 386.635 361.092 382.398 365.321C378.161 369.55 371.944 365.343 371.944 365.343Z" fill="#4D4D4D"/>
<path fill-rule="evenodd" clip-rule="evenodd" d="M377.127 354.262C373.789 354.262 371.092 356.961 371.092 360.28C371.092 363.599 373.789 366.298 377.127 366.298C380.465 366.298 383.161 363.599 383.161 360.28C383.161 356.961 380.465 354.262 377.127 354.262ZM365.092 360.28C365.092 353.637 370.485 348.262 377.127 348.262C383.768 348.262 389.161 353.637 389.161 360.28C389.161 366.923 383.768 372.298 377.127 372.298C370.485 372.298 365.092 366.923 365.092 360.28Z" fill="#626262"/>
<path d="M370.745 353.897L411.152 326.315L383.521 366.65C383.521 366.65 388.715 359.082 383.521 353.897C378.327 348.713 370.745 353.897 370.745 353.897Z" fill="#626262"/>
<g filter="url(#filter2_f_2605_20433)">
<circle cx="348.033" cy="336.018" r="9.69116" fill="white"/>
</g>
<g style="mix-blend-mode:overlay" filter="url(#filter3_f_2605_20433)">
<path fill-rule="evenodd" clip-rule="evenodd" d="M326.214 416.997C308.807 424.651 289.565 428.9 269.331 428.9C191.21 428.9 127.881 365.571 127.881 287.45C127.881 209.329 191.21 146 269.331 146C347.452 146 410.781 209.329 410.781 287.45C410.781 288.913 410.759 290.37 410.715 291.822C422.741 297.72 433.028 306.691 440.507 317.859C448.895 330.385 453.373 345.114 453.376 360.181C453.355 380.373 445.313 399.734 431.013 414.016C416.713 428.298 397.323 436.337 377.094 436.369C361.999 436.376 347.242 431.914 334.688 423.548C331.701 421.557 328.871 419.367 326.214 416.997Z" fill="#A2876A"/>
</g>
</g>
<defs>
<filter id="filter0_i_2605_20433" x="127.881" y="131" width="282.9" height="297.9" filterUnits="userSpaceOnUse" color-interpolation-filters="sRGB">
<feFlood flood-opacity="0" result="BackgroundImageFix"/>
<feBlend mode="normal" in="SourceGraphic" in2="BackgroundImageFix" result="shape"/>
<feColorMatrix in="SourceAlpha" type="matrix" values="0 0 0 0 0 0 0 0 0 0 0 0 0 0 0 0 0 0 127 0" result="hardAlpha"/>
<feOffset dy="-15"/>
<feGaussianBlur stdDeviation="13"/>
<feComposite in2="hardAlpha" operator="arithmetic" k2="-1" k3="1"/>
<feColorMatrix type="matrix" values="0 0 0 0 1 0 0 0 0 1 0 0 0 0 1 0 0 0 0.7 0"/>
<feBlend mode="normal" in2="shape" result="effect1_innerShadow_2605_20433"/>
</filter>
<filter id="filter1_f_2605_20433" x="263.746" y="232.311" width="206.629" height="231.059" filterUnits="userSpaceOnUse" color-interpolation-filters="sRGB">
<feFlood flood-opacity="0" result="BackgroundImageFix"/>
<feBlend mode="normal" in="SourceGraphic" in2="BackgroundImageFix" result="shape"/>
<feGaussianBlur stdDeviation="13.5" result="effect1_foregroundBlur_2605_20433"/>
</filter>
<filter id="filter2_f_2605_20433" x="337.342" y="325.327" width="21.3823" height="21.3818" filterUnits="userSpaceOnUse" color-interpolation-filters="sRGB">
<feFlood flood-opacity="0" result="BackgroundImageFix"/>
<feBlend mode="normal" in="SourceGraphic" in2="BackgroundImageFix" result="shape"/>
<feGaussianBlur stdDeviation="0.5" result="effect1_foregroundBlur_2605_20433"/>
</filter>
<filter id="filter3_f_2605_20433" x="126.881" y="145" width="327.495" height="292.369" filterUnits="userSpaceOnUse" color-interpolation-filters="sRGB">
<feFlood flood-opacity="0" result="BackgroundImageFix"/>
<feBlend mode="normal" in="SourceGraphic" in2="BackgroundImageFix" result="shape"/>
<feGaussianBlur stdDeviation="0.5" result="effect1_foregroundBlur_2605_20433"/>
</filter>
<radialGradient id="paint0_radial_2605_20433" cx="0" cy="0" r="1" gradientUnits="userSpaceOnUse" gradientTransform="translate(269.331 287.45) rotate(90) scale(141.45)">
<stop offset="0.760417" stop-color="#CCCBCB"/>
<stop offset="1" stop-color="#E6E6E6"/>
</radialGradient>
<radialGradient id="paint1_radial_2605_20433" cx="0" cy="0" r="1" gradientUnits="userSpaceOnUse" gradientTransform="translate(269.331 287.45) rotate(-90) scale(107.73)">
<stop offset="0.67502" stop-color="#919191"/>
<stop offset="1" stop-color="#B9B9B9"/>
</radialGradient>
<radialGradient id="paint2_radial_2605_20433" cx="0" cy="0" r="1" gradientUnits="userSpaceOnUse" gradientTransform="translate(269.331 287.45) rotate(-90.0002) scale(74.01)">
<stop stop-color="#454545"/>
<stop offset="1" stop-color="#838383"/>
</radialGradient>
<radialGradient id="paint3_radial_2605_20433" cx="0" cy="0" r="1" gradientUnits="userSpaceOnUse" gradientTransform="translate(269.331 287.45) rotate(90) scale(40.29)">
<stop stop-color="#3E3E3E"/>
<stop offset="1" stop-color="#5B5B5B"/>
</radialGradient>
<radialGradient id="paint4_radial_2605_20433" cx="0" cy="0" r="1" gradientUnits="userSpaceOnUse" gradientTransform="translate(207.51 237.149) rotate(71.7494) scale(201.873 200.231)">
<stop stop-color="#E1E1E1"/>
<stop offset="0.480177" stop-color="#BFBFBF"/>
<stop offset="1" stop-color="#9A9A9A"/>
</radialGradient>
<radialGradient id="paint5_radial_2605_20433" cx="0" cy="0" r="1" gradientUnits="userSpaceOnUse" gradientTransform="translate(209.863 235.479) rotate(76.8847) scale(163.496 156.562)">
<stop stop-color="#B8B6B6"/>
<stop offset="1" stop-color="#474747"/>
</radialGradient>
<radialGradient id="paint6_radial_2605_20433" cx="0" cy="0" r="1" gradientUnits="userSpaceOnUse" gradientTransform="translate(209.863 235.479) rotate(76.8847) scale(163.496 156.562)">
<stop stop-color="#B8B6B6"/>
<stop offset="1" stop-color="#474747"/>
</radialGradient>
<radialGradient id="paint7_radial_2605_20433" cx="0" cy="0" r="1" gradientUnits="userSpaceOnUse" gradientTransform="translate(209.863 235.479) rotate(76.8847) scale(163.496 156.562)">
<stop stop-color="#B8B6B6"/>
<stop offset="1" stop-color="#474747"/>
</radialGradient>
<radialGradient id="paint8_radial_2605_20433" cx="0" cy="0" r="1" gradientUnits="userSpaceOnUse" gradientTransform="translate(209.863 235.479) rotate(76.8847) scale(163.496 156.562)">
<stop stop-color="#B8B6B6"/>
<stop offset="1" stop-color="#474747"/>
</radialGradient>
<radialGradient id="paint9_radial_2605_20433" cx="0" cy="0" r="1" gradientUnits="userSpaceOnUse" gradientTransform="translate(209.863 235.479) rotate(76.8847) scale(163.496 156.562)">
<stop stop-color="#B8B6B6"/>
<stop offset="1" stop-color="#474747"/>
</radialGradient>
<radialGradient id="paint10_radial_2605_20433" cx="0" cy="0" r="1" gradientUnits="userSpaceOnUse" gradientTransform="translate(209.863 235.479) rotate(76.8847) scale(163.496 156.562)">
<stop stop-color="#B8B6B6"/>
<stop offset="1" stop-color="#474747"/>
</radialGradient>
<radialGradient id="paint11_radial_2605_20433" cx="0" cy="0" r="1" gradientUnits="userSpaceOnUse" gradientTransform="translate(269.331 287.45) rotate(90) scale(141.45)">
<stop offset="0.760417" stop-color="#CCCBCB"/>
<stop offset="1" stop-color="#E6E6E6"/>
</radialGradient>
<linearGradient id="paint12_linear_2605_20433" x1="356.304" y1="338.109" x2="418.113" y2="410.235" gradientUnits="userSpaceOnUse">
<stop stop-color="#C0C0C0"/>
<stop offset="1" stop-color="#F2F2F2" stop-opacity="0"/>
</linearGradient>
<clipPath id="clip0_2605_20433">
<rect width="600" height="600" fill="white"/>
</clipPath>
</defs>
</svg>
