<svg width="600" height="600" viewBox="0 0 600 600" fill="none" xmlns="http://www.w3.org/2000/svg">
<g clip-path="url(#clip0_2605_20515)">
<rect width="600" height="600" fill="#FFF8EB"/>
<path d="M169.963 127.908H132.318C122.768 127.908 113.61 131.695 106.857 138.435C100.105 145.175 96.3115 154.317 96.3115 163.849C96.3115 173.382 100.105 182.523 106.857 189.264C113.61 196.004 122.768 199.79 132.318 199.79H169.963V127.908Z" fill="url(#paint0_linear_2605_20515)"/>
<path d="M128.224 159.533C130.912 159.47 133.585 159.944 136.086 160.928C138.588 161.911 140.867 163.384 142.79 165.259C144.714 167.135 146.242 169.375 147.285 171.848C148.328 174.322 148.866 176.978 148.866 179.662C148.866 182.346 148.328 185.002 147.285 187.475C146.242 189.949 144.714 192.189 142.79 194.064C140.867 195.94 138.588 197.412 136.086 198.396C133.585 199.379 130.912 199.854 128.224 199.791H188.472V159.533H128.224Z" fill="#CCCCCC"/>
<path d="M128.224 159.533C130.912 159.47 133.585 159.944 136.086 160.928C138.588 161.911 140.867 163.384 142.79 165.259C144.714 167.135 146.242 169.375 147.285 171.848C148.328 174.322 148.866 176.978 148.866 179.662C148.866 182.346 148.328 185.002 147.285 187.475C146.242 189.949 144.714 192.189 142.79 194.064C140.867 195.94 138.588 197.412 136.086 198.396C133.585 199.379 130.912 199.854 128.224 199.791H188.472V159.533H128.224Z" fill="url(#paint1_linear_2605_20515)"/>
<path d="M128.224 127.908C133.06 127.907 137.849 128.856 142.318 130.703C146.786 132.549 150.847 135.256 154.267 138.669C157.687 142.082 160.4 146.135 162.251 150.595C164.102 155.054 165.055 159.835 165.055 164.662V306.79L181.419 319.862L165.055 336.195V402.366C165.055 412.114 168.935 421.462 175.84 428.355C182.745 435.248 192.11 439.12 201.876 439.12H372.904V223.473L354.12 207.139L372.937 191.618V164.662C372.937 154.914 369.058 145.566 362.153 138.673C355.248 131.78 345.882 127.908 336.117 127.908H128.224Z" fill="url(#paint2_linear_2605_20515)"/>
<path d="M245.255 367.237H205.188C199.838 367.237 194.708 369.359 190.925 373.135C187.142 376.911 185.017 382.032 185.017 387.372C185.02 392.71 187.146 397.828 190.929 401.602C194.711 405.376 199.84 407.495 205.188 407.495H245.255V367.237Z" fill="url(#paint3_linear_2605_20515)"/>
<path d="M294.697 180.909H212.44C211.389 180.909 210.381 180.492 209.638 179.751C208.895 179.009 208.478 178.003 208.478 176.954C208.478 175.906 208.895 174.9 209.638 174.158C210.381 173.417 211.389 173 212.44 173H294.697C295.747 173 296.755 173.417 297.498 174.158C298.241 174.9 298.658 175.906 298.658 176.954C298.658 178.003 298.241 179.009 297.498 179.751C296.755 180.492 295.747 180.909 294.697 180.909Z" fill="#707070"/>
<path d="M329.91 180.909H313.327C312.276 180.909 311.269 180.492 310.526 179.751C309.783 179.009 309.365 178.003 309.365 176.954C309.365 175.906 309.783 174.9 310.526 174.158C311.269 173.417 312.276 173 313.327 173H329.91C330.961 173 331.969 173.417 332.712 174.158C333.455 174.9 333.872 175.906 333.872 176.954C333.872 178.003 333.455 179.009 332.712 179.751C331.969 180.492 330.961 180.909 329.91 180.909Z" fill="#707070"/>
<path d="M294.697 217.026H212.44C211.389 217.026 210.381 216.609 209.638 215.867C208.895 215.126 208.478 214.12 208.478 213.071C208.478 212.022 208.895 211.017 209.638 210.275C210.381 209.533 211.389 209.117 212.44 209.117H294.697C295.747 209.117 296.755 209.533 297.498 210.275C298.241 211.017 298.658 212.022 298.658 213.071C298.658 214.12 298.241 215.126 297.498 215.867C296.755 216.609 295.747 217.026 294.697 217.026Z" fill="#707070"/>
<path d="M329.91 217.026H313.327C312.276 217.026 311.269 216.609 310.526 215.867C309.783 215.126 309.365 214.12 309.365 213.071C309.365 212.022 309.783 211.017 310.526 210.275C311.269 209.533 312.276 209.117 313.327 209.117H329.91C330.961 209.117 331.969 209.533 332.712 210.275C333.455 211.017 333.872 212.022 333.872 213.071C333.872 214.12 333.455 215.126 332.712 215.867C331.969 216.609 330.961 217.026 329.91 217.026Z" fill="#707070"/>
<path d="M303.084 253.066H212.44C211.919 253.066 211.404 252.963 210.924 252.765C210.443 252.566 210.006 252.275 209.638 251.907C209.27 251.54 208.979 251.104 208.78 250.624C208.58 250.145 208.478 249.63 208.478 249.111C208.478 248.592 208.58 248.078 208.78 247.598C208.979 247.118 209.27 246.682 209.638 246.315C210.006 245.948 210.443 245.656 210.924 245.458C211.404 245.259 211.919 245.157 212.44 245.157H303.084C303.604 245.157 304.119 245.259 304.6 245.458C305.08 245.656 305.517 245.948 305.885 246.315C306.253 246.682 306.544 247.118 306.744 247.598C306.943 248.078 307.045 248.592 307.045 249.111C307.045 249.63 306.943 250.145 306.744 250.624C306.544 251.104 306.253 251.54 305.885 251.907C305.517 252.275 305.08 252.566 304.6 252.765C304.119 252.963 303.604 253.066 303.084 253.066Z" fill="#707070"/>
<path d="M304.282 289.15H212.44C211.389 289.15 210.381 288.733 209.638 287.991C208.895 287.25 208.478 286.244 208.478 285.195C208.478 284.146 208.895 283.141 209.638 282.399C210.381 281.657 211.389 281.241 212.44 281.241H304.282C304.802 281.241 305.318 281.343 305.798 281.542C306.279 281.74 306.716 282.032 307.083 282.399C307.451 282.766 307.743 283.202 307.942 283.682C308.141 284.162 308.244 284.676 308.244 285.195C308.244 285.714 308.141 286.229 307.942 286.708C307.743 287.188 307.451 287.624 307.083 287.991C306.716 288.359 306.279 288.65 305.798 288.849C305.318 289.047 304.802 289.15 304.282 289.15Z" fill="#707070"/>
<path d="M267.659 325.233H212.44C211.424 325.18 210.467 324.739 209.767 324.003C209.066 323.266 208.676 322.289 208.676 321.273C208.676 320.258 209.066 319.281 209.767 318.544C210.467 317.807 211.424 317.367 212.44 317.313H267.659C268.675 317.367 269.632 317.807 270.332 318.544C271.032 319.281 271.423 320.258 271.423 321.273C271.423 322.289 271.032 323.266 270.332 324.003C269.632 324.739 268.675 325.18 267.659 325.233Z" fill="#707070"/>
<path d="M205.639 379.596C207.474 379.596 209.292 379.957 210.987 380.658C212.683 381.359 214.224 382.386 215.521 383.682C216.819 384.977 217.848 386.515 218.551 388.207C219.253 389.9 219.615 391.714 219.615 393.546C219.615 395.378 219.253 397.192 218.551 398.885C217.848 400.577 216.819 402.115 215.521 403.41C214.224 404.706 212.683 405.733 210.987 406.434C209.292 407.135 207.474 407.496 205.639 407.496H247.378V379.596H205.639Z" fill="url(#paint4_linear_2605_20515)"/>
<path d="M372.904 367.237H205.639C214.537 368.17 222.774 372.359 228.761 378.996C234.748 385.633 238.061 394.247 238.061 403.178C238.061 412.109 234.748 420.724 228.761 427.361C222.774 433.998 214.537 438.187 205.639 439.12H372.904C382.454 439.12 391.612 435.333 398.364 428.593C405.117 421.852 408.91 412.711 408.91 403.178C408.91 393.646 405.117 384.504 398.364 377.764C391.612 371.024 382.454 367.237 372.904 367.237Z" fill="url(#paint5_linear_2605_20515)"/>
<path fill-rule="evenodd" clip-rule="evenodd" d="M387.799 192.103C389.456 192.103 390.799 193.446 390.799 195.103V258.094C390.799 259.751 389.456 261.094 387.799 261.094C386.142 261.094 384.799 259.751 384.799 258.094V195.103C384.799 193.446 386.142 192.103 387.799 192.103Z" fill="#737373"/>
<path d="M416.88 255.597V267.521C416.88 268.423 416.521 269.289 415.883 269.927C415.245 270.565 414.38 270.923 413.477 270.923H402.313C401.411 270.923 400.545 270.565 399.907 269.927C399.269 269.289 398.911 268.423 398.911 267.521V255.597C398.908 254.695 398.548 253.831 397.911 253.194C397.273 252.556 396.41 252.197 395.508 252.194H380.088C379.186 252.194 378.32 252.553 377.682 253.191C377.044 253.829 376.686 254.694 376.686 255.597V267.521C376.683 268.422 376.324 269.286 375.686 269.924C375.049 270.561 374.185 270.92 373.283 270.923H362.16C361.259 270.92 360.395 270.561 359.758 269.924C359.12 269.286 358.761 268.422 358.758 267.521V255.597C358.758 254.694 358.4 253.829 357.762 253.191C357.123 252.553 356.258 252.194 355.356 252.194H339.936C339.034 252.197 338.17 252.556 337.533 253.194C336.895 253.831 336.536 254.695 336.533 255.597V299.724C336.533 300.626 336.892 301.492 337.53 302.13C338.168 302.768 339.033 303.126 339.936 303.126H435.661C436.108 303.128 436.551 303.041 436.964 302.87C437.378 302.7 437.753 302.449 438.07 302.133C438.386 301.817 438.636 301.441 438.807 301.028C438.977 300.614 439.064 300.171 439.063 299.724V255.597C439.063 254.694 438.705 253.829 438.067 253.191C437.428 252.553 436.563 252.194 435.661 252.194H420.23C419.338 252.211 418.487 252.576 417.861 253.212C417.235 253.848 416.882 254.704 416.88 255.597Z" fill="url(#paint6_linear_2605_20515)"/>
<path d="M443.933 438.66H331.56C331.18 438.659 330.804 438.575 330.459 438.415C330.114 438.255 329.807 438.022 329.56 437.733C329.313 437.443 329.132 437.104 329.028 436.738C328.924 436.372 328.901 435.988 328.959 435.612L350.154 303.126H425.329L446.576 435.664C446.629 436.039 446.599 436.422 446.49 436.786C446.381 437.149 446.194 437.485 445.943 437.769C445.692 438.054 445.383 438.281 445.036 438.435C444.689 438.588 444.313 438.665 443.933 438.66Z" fill="url(#paint7_linear_2605_20515)"/>
<path d="M387.8 318.786C391.387 318.786 394.828 320.211 397.364 322.748C399.901 325.285 401.326 328.725 401.326 332.312V356.504H374.305V332.281C374.313 328.705 375.737 325.277 378.266 322.748C380.795 320.219 384.223 318.794 387.8 318.786Z" fill="url(#paint8_linear_2605_20515)"/>
<path d="M387.799 375.493C392.311 375.493 396.638 377.285 399.828 380.476C403.019 383.666 404.811 387.993 404.811 392.505V422.991H370.787V392.505C370.787 387.993 372.579 383.666 375.77 380.476C378.96 377.285 383.287 375.493 387.799 375.493Z" fill="url(#paint9_linear_2605_20515)"/>
<path d="M425.818 210.617L390.441 198.901C390.085 198.782 389.706 198.75 389.334 198.806C388.963 198.863 388.611 199.007 388.306 199.226C388.001 199.446 387.753 199.734 387.582 200.069C387.41 200.403 387.32 200.773 387.32 201.148V224.59C387.32 224.966 387.41 225.336 387.582 225.67C387.753 226.004 388.001 226.293 388.306 226.512C388.611 226.732 388.963 226.875 389.334 226.932C389.706 226.989 390.085 226.956 390.441 226.838L425.818 215.122C426.292 214.965 426.704 214.664 426.997 214.259C427.289 213.855 427.446 213.368 427.446 212.869C427.446 212.37 427.289 211.884 426.997 211.479C426.704 211.075 426.292 210.773 425.818 210.617Z" fill="url(#paint10_linear_2605_20515)"/>
<g style="mix-blend-mode:overlay">
<path d="M128.246 127.908C128.928 127.908 129.608 127.928 130.287 127.965C121.478 128.462 113.13 132.174 106.857 138.435C100.105 145.175 96.3115 154.317 96.3115 163.849C96.3115 173.382 100.105 182.523 106.857 189.264C113.129 195.524 121.477 199.236 130.285 199.733C129.913 199.763 129.54 199.782 129.166 199.79H128.224C128.538 199.798 128.852 199.798 129.166 199.79H132.23L132.318 199.79H165.055V306.79L181.419 319.862L165.055 336.195V402.366C165.055 412.114 168.935 421.462 175.84 428.355C182.745 435.248 192.11 439.12 201.876 439.12H372.904C374.838 439.12 376.757 438.964 378.642 438.661H443.933C444.313 438.666 444.689 438.589 445.036 438.435C445.383 438.281 445.692 438.054 445.943 437.77C446.194 437.485 446.381 437.149 446.49 436.786C446.599 436.423 446.629 436.04 446.576 435.664L425.329 303.127H435.661C436.108 303.128 436.551 303.041 436.965 302.871C437.378 302.7 437.754 302.449 438.07 302.133C438.386 301.817 438.637 301.441 438.807 301.028C438.978 300.615 439.065 300.172 439.063 299.724V255.597C439.063 254.695 438.705 253.829 438.067 253.191C437.429 252.553 436.563 252.195 435.661 252.195H420.23C419.338 252.211 418.487 252.576 417.861 253.212C417.235 253.848 416.883 254.705 416.88 255.597V267.521C416.88 268.424 416.522 269.289 415.883 269.927C415.245 270.565 414.38 270.924 413.478 270.924H402.313C401.411 270.924 400.545 270.565 399.907 269.927C399.269 269.289 398.911 268.424 398.911 267.521V255.597C398.908 254.696 398.549 253.832 397.911 253.194C397.274 252.557 396.41 252.198 395.508 252.195H390.799V226.719L425.818 215.122C426.292 214.965 426.704 214.663 426.997 214.259C427.289 213.854 427.447 213.368 427.447 212.869C427.447 212.37 427.289 211.884 426.997 211.479C426.704 211.075 426.292 210.773 425.818 210.616L390.799 199.019V195.103C390.799 193.446 389.456 192.103 387.799 192.103C386.142 192.103 384.799 193.446 384.799 195.103V252.195H380.088C379.186 252.195 378.321 252.553 377.682 253.191C377.044 253.829 376.686 254.695 376.686 255.597V267.521C376.683 268.423 376.324 269.287 375.686 269.924C375.049 270.561 374.185 270.921 373.284 270.924H372.904V223.473L354.12 207.139L372.937 191.618V164.662C372.937 154.914 369.058 145.566 362.153 138.673C355.248 131.78 345.882 127.908 336.117 127.908H128.246Z" fill="#D2A149"/>
</g>
</g>
<defs>
<linearGradient id="paint0_linear_2605_20515" x1="133.137" y1="127.908" x2="133.137" y2="199.79" gradientUnits="userSpaceOnUse">
<stop stop-color="#A9A9A9"/>
<stop offset="1" stop-color="#888888"/>
</linearGradient>
<linearGradient id="paint1_linear_2605_20515" x1="158.348" y1="159.527" x2="158.348" y2="199.796" gradientUnits="userSpaceOnUse">
<stop stop-color="#C8C8C8"/>
<stop offset="1" stop-color="#BFBFBF"/>
</linearGradient>
<linearGradient id="paint2_linear_2605_20515" x1="250.581" y1="159.223" x2="250.581" y2="439.12" gradientUnits="userSpaceOnUse">
<stop stop-color="#D8D8D8"/>
<stop offset="1" stop-color="#A5A4A4"/>
</linearGradient>
<linearGradient id="paint3_linear_2605_20515" x1="215.136" y1="367.237" x2="215.136" y2="407.495" gradientUnits="userSpaceOnUse">
<stop stop-color="#949494"/>
<stop offset="1" stop-color="#7B7B7B"/>
</linearGradient>
<linearGradient id="paint4_linear_2605_20515" x1="226.509" y1="379.596" x2="226.509" y2="407.496" gradientUnits="userSpaceOnUse">
<stop stop-color="#B4B4B4"/>
<stop offset="1" stop-color="#8C8C8C"/>
</linearGradient>
<linearGradient id="paint5_linear_2605_20515" x1="307.275" y1="367.237" x2="307.275" y2="439.12" gradientUnits="userSpaceOnUse">
<stop stop-color="#D5D5D5"/>
<stop offset="1" stop-color="#B6B6B6"/>
</linearGradient>
<linearGradient id="paint6_linear_2605_20515" x1="387.798" y1="252.194" x2="387.798" y2="303.126" gradientUnits="userSpaceOnUse">
<stop stop-color="#A5A5A5"/>
<stop offset="1" stop-color="#7C7C7C"/>
</linearGradient>
<linearGradient id="paint7_linear_2605_20515" x1="387.765" y1="303.126" x2="387.765" y2="438.66" gradientUnits="userSpaceOnUse">
<stop stop-color="#646464"/>
<stop offset="0.46875" stop-color="#9F9F9F"/>
</linearGradient>
<linearGradient id="paint8_linear_2605_20515" x1="387.815" y1="318.786" x2="387.815" y2="356.504" gradientUnits="userSpaceOnUse">
<stop stop-color="#6C6C6C"/>
<stop offset="1" stop-color="#646464"/>
<stop offset="1" stop-color="#595959"/>
</linearGradient>
<linearGradient id="paint9_linear_2605_20515" x1="387.799" y1="375.493" x2="387.799" y2="422.991" gradientUnits="userSpaceOnUse">
<stop stop-color="#6C6C6C"/>
<stop offset="1" stop-color="#646464"/>
<stop offset="1" stop-color="#595959"/>
</linearGradient>
<linearGradient id="paint10_linear_2605_20515" x1="387.32" y1="212.869" x2="414.828" y2="212.869" gradientUnits="userSpaceOnUse">
<stop stop-color="#88888A"/>
<stop offset="1" stop-color="#B6B6BA"/>
</linearGradient>
<clipPath id="clip0_2605_20515">
<rect width="600" height="600" fill="white"/>
</clipPath>
</defs>
</svg>
