<svg width="600" height="600" viewBox="0 0 600 600" fill="none" xmlns="http://www.w3.org/2000/svg">
<g clip-path="url(#clip0_31_871)">
<rect width="600" height="600" fill="#FAFFEF"/>
<g style="mix-blend-mode:luminosity">
<path d="M115.585 188.805H450.748V444.992H115.585V188.805Z" fill="url(#paint0_linear_31_871)"/>
<path fill-rule="evenodd" clip-rule="evenodd" d="M109 191.242C109 186.272 113.029 182.242 118 182.242H448.365C453.335 182.242 457.365 186.272 457.365 191.242V442.632C457.365 447.603 453.335 451.632 448.365 451.632H118C113.029 451.632 109 447.603 109 442.632V191.242ZM131.202 195.445C126.232 195.445 122.202 199.474 122.202 204.444V429.43C122.202 434.4 126.232 438.43 131.202 438.43H435.162C440.133 438.43 444.162 434.4 444.162 429.43V204.445C444.162 199.474 440.133 195.445 435.162 195.445H131.202Z" fill="url(#paint1_linear_31_871)"/>
<circle cx="283.186" cy="437.454" r="12.157" fill="#A1A1A1"/>
<path d="M282.272 200.138V434.856C285.943 429.553 291.981 426.39 298.43 426.39H434.616C435.721 426.39 436.616 425.494 436.616 424.39V186.779C436.616 185.675 435.721 184.779 434.616 184.779H297.63C289.148 184.779 282.272 191.655 282.272 200.138Z" fill="url(#paint2_linear_31_871)"/>
<path d="M393.391 350.392C388.015 350.392 383.255 349.664 379.111 348.208C374.967 346.752 371.215 344.624 367.855 341.824C364.495 338.912 361.359 335.272 358.447 330.904L368.695 331.408C364.887 335.888 361.023 339.528 357.103 342.328C353.295 345.128 348.983 347.2 344.167 348.544C339.463 349.776 333.863 350.392 327.367 350.392C320.311 350.392 314.151 349.104 308.887 346.528C303.623 343.952 299.535 340.312 296.623 335.608C293.711 330.904 292.255 325.416 292.255 319.144C292.255 313.656 293.487 308.896 295.951 304.864C298.527 300.72 301.999 297.528 306.367 295.288C310.847 292.936 315.999 291.76 321.823 291.76C329.663 291.76 335.543 293.384 339.463 296.632C343.495 299.88 345.511 304.36 345.511 310.072C345.511 311.864 345.231 313.712 344.671 315.616C344.223 317.52 343.663 319.088 342.991 320.32L326.191 318.976C326.415 318.304 326.527 317.688 326.527 317.128C326.639 316.456 326.695 315.84 326.695 315.28C326.695 313.6 326.191 312.312 325.183 311.416C324.287 310.408 322.887 309.904 320.983 309.904C318.855 309.904 317.007 310.632 315.439 312.088C313.871 313.432 313.087 315.448 313.087 318.136C313.087 321.608 314.599 324.296 317.623 326.2C320.647 328.104 325.351 329.056 331.735 329.056C338.679 329.056 343.719 327.432 346.855 324.184C349.991 320.936 351.783 316.68 352.231 311.416H374.239C374.687 317.576 376.255 322.056 378.943 324.856C381.743 327.656 385.047 329.056 388.855 329.056C393.783 329.056 397.143 327.544 398.935 324.52C400.839 321.384 401.791 317.576 401.791 313.096C401.791 306.264 400.111 300.328 396.751 295.288C393.391 290.136 388.519 285.936 382.135 282.688C375.863 279.328 368.303 276.808 359.455 275.128C350.607 273.448 340.751 272.608 329.887 272.608L331.735 250.432C345.287 250.544 357.215 251.664 367.519 253.792C377.935 255.808 386.839 258.776 394.231 262.696C401.735 266.504 407.839 271.04 412.543 276.304C417.247 281.456 420.719 287.168 422.959 293.44C425.199 299.712 426.319 306.32 426.319 313.264C426.319 321.664 424.919 328.608 422.119 334.096C419.319 339.584 415.455 343.672 410.527 346.36C405.599 349.048 399.887 350.392 393.391 350.392Z" fill="#A34E4E"/>
<path d="M282.279 197.773V434.846L280.997 433.082C277.871 428.783 273.197 425.868 267.962 424.952L143.734 403.224C142.777 403.057 142.079 402.226 142.079 401.254V163.686C142.079 162.45 143.19 161.51 144.409 161.714L269.454 182.625C276.856 183.863 282.279 190.268 282.279 197.773Z" fill="url(#paint3_linear_31_871)"/>
<path d="M282.281 195.116V434.829L279.788 431.227C277.587 428.049 274.533 425.559 270.976 424.044L172.135 381.941C171.398 381.627 170.919 380.903 170.919 380.101V142.776C170.919 141.359 172.353 140.391 173.667 140.922L272.67 180.874C278.478 183.218 282.281 188.853 282.281 195.116Z" fill="url(#paint4_linear_31_871)"/>
<path d="M282.27 191.139V434.854L276.409 426.388L217.016 361.183C216.681 360.815 216.495 360.334 216.495 359.836V123.829C216.495 122.047 218.649 121.154 219.909 122.414L277.772 180.28C280.652 183.16 282.27 187.066 282.27 191.139Z" fill="url(#paint5_linear_31_871)"/>
<g style="mix-blend-mode:overlay">
<path d="M279.431 182.243H448.365C453.335 182.243 457.365 186.272 457.365 191.243V442.632C457.365 447.603 453.335 451.632 448.365 451.632H118C113.029 451.632 109 447.603 109 442.632V191.243C109 186.272 113.029 182.243 118 182.243H142.079V163.686C142.079 162.45 143.19 161.51 144.409 161.714L170.919 166.147V142.776C170.919 141.359 172.353 140.391 173.668 140.921L216.494 158.204V123.828C216.494 122.046 218.649 121.154 219.909 122.414L277.771 180.279C278.382 180.89 278.937 181.547 279.431 182.243Z" fill="#CC9036"/>
</g>
</g>
</g>
<defs>
<linearGradient id="paint0_linear_31_871" x1="115.585" y1="316.898" x2="262.745" y2="316.898" gradientUnits="userSpaceOnUse">
<stop stop-color="#C5C5C5"/>
<stop offset="1" stop-color="#A2A2A2"/>
</linearGradient>
<linearGradient id="paint1_linear_31_871" x1="109" y1="182.242" x2="283.182" y2="451.632" gradientUnits="userSpaceOnUse">
<stop stop-color="#8E8E8E"/>
<stop offset="1" stop-color="#707070"/>
</linearGradient>
<linearGradient id="paint2_linear_31_871" x1="282.272" y1="309.817" x2="436.616" y2="309.817" gradientUnits="userSpaceOnUse">
<stop stop-color="#D5D5D5"/>
<stop offset="0.338542" stop-color="#EEEEEE"/>
</linearGradient>
<linearGradient id="paint3_linear_31_871" x1="142.079" y1="254.403" x2="282.279" y2="254.403" gradientUnits="userSpaceOnUse">
<stop stop-color="#DEDEDE"/>
<stop offset="1" stop-color="#C4C4C4"/>
</linearGradient>
<linearGradient id="paint4_linear_31_871" x1="170.92" y1="237.472" x2="271.211" y2="237.472" gradientUnits="userSpaceOnUse">
<stop offset="0.130208" stop-color="#F0F0F0"/>
<stop offset="1" stop-color="#DADADA"/>
</linearGradient>
<linearGradient id="paint5_linear_31_871" x1="216.495" y1="250.171" x2="271.211" y2="254.404" gradientUnits="userSpaceOnUse">
<stop stop-color="white"/>
<stop offset="1" stop-color="#E3E3E3"/>
</linearGradient>
<clipPath id="clip0_31_871">
<rect width="600" height="600" fill="white"/>
</clipPath>
</defs>
</svg>
