<svg width="600" height="600" viewBox="0 0 600 600" fill="none" xmlns="http://www.w3.org/2000/svg">
<g clip-path="url(#clip0_2605_20143)">
<rect width="600" height="600" fill="#FDEBEE"/>
<path d="M312.924 290.7H178.124C176.533 290.7 175.007 290.068 173.882 288.943C172.756 287.818 172.124 286.291 172.124 284.7C172.124 283.109 172.756 281.583 173.882 280.458C175.007 279.332 176.533 278.7 178.124 278.7H312.924C314.516 278.7 316.042 279.332 317.167 280.458C318.292 281.583 318.924 283.109 318.924 284.7C318.924 286.291 318.292 287.818 317.167 288.943C316.042 290.068 314.516 290.7 312.924 290.7Z" fill="#ABABAB"/>
<path d="M245.534 140H245.524C239.957 140 235.444 144.513 235.444 150.08V174.33C235.444 179.897 239.957 184.41 245.524 184.41H245.534C251.101 184.41 255.614 179.897 255.614 174.33V150.08C255.614 144.513 251.101 140 245.534 140Z" fill="url(#paint0_linear_2605_20143)"/>
<path d="M146.004 459.13L166.154 420.61L154.154 415.95L143.054 457.95C142.953 458.328 142.994 458.73 143.17 459.08C143.345 459.43 143.642 459.704 144.006 459.849C144.369 459.994 144.773 460.001 145.141 459.869C145.51 459.736 145.817 459.474 146.004 459.13Z" fill="url(#paint1_linear_2605_20143)"/>
<path d="M150.974 438.65C149.522 438.091 148.271 437.11 147.38 435.834C146.489 434.559 146 433.046 145.974 431.49L145.594 403.42C145.584 402.419 145.764 401.425 146.124 400.49L223.924 200C224.294 199.046 224.848 198.174 225.554 197.435C226.261 196.695 227.107 196.102 228.043 195.689C228.979 195.277 229.988 195.053 231.011 195.031C232.034 195.009 233.051 195.189 234.004 195.56L243.804 199.36C244.76 199.73 245.633 200.284 246.373 200.991C247.114 201.699 247.708 202.545 248.122 203.482C248.535 204.42 248.76 205.429 248.782 206.453C248.805 207.477 248.626 208.496 248.254 209.45L161.054 434.21C160.685 435.164 160.131 436.036 159.424 436.776C158.717 437.516 157.871 438.109 156.935 438.521C155.999 438.934 154.99 439.157 153.968 439.179C152.945 439.202 151.927 439.022 150.974 438.65Z" fill="url(#paint2_linear_2605_20143)"/>
<path d="M345.044 459.13L324.884 420.61L336.884 415.95L347.984 457.95C348.076 458.324 348.029 458.719 347.853 459.062C347.677 459.404 347.384 459.672 347.026 459.815C346.669 459.959 346.271 459.969 345.907 459.843C345.543 459.717 345.237 459.464 345.044 459.13Z" fill="url(#paint3_linear_2605_20143)"/>
<path d="M340.074 438.65C341.527 438.092 342.781 437.112 343.672 435.836C344.563 434.56 345.051 433.046 345.074 431.49L345.464 403.42C345.474 402.418 345.294 401.424 344.934 400.49L267.124 200C266.754 199.045 266.199 198.173 265.491 197.433C264.783 196.694 263.937 196.1 262.999 195.688C262.062 195.276 261.053 195.052 260.03 195.03C259.006 195.008 257.988 195.188 257.034 195.56L247.234 199.36C246.275 199.728 245.399 200.283 244.654 200.99C243.91 201.698 243.313 202.546 242.897 203.485C242.481 204.424 242.254 205.436 242.229 206.463C242.205 207.49 242.383 208.512 242.754 209.47L329.954 434.21C330.324 435.168 330.88 436.043 331.59 436.785C332.3 437.528 333.15 438.122 334.09 438.535C335.031 438.948 336.044 439.17 337.071 439.19C338.098 439.21 339.118 439.026 340.074 438.65Z" fill="url(#paint4_linear_2605_20143)"/>
<path d="M174.234 421.97C182.276 421.97 188.794 415.451 188.794 407.41C188.794 399.368 182.276 392.85 174.234 392.85C166.193 392.85 159.674 399.368 159.674 407.41C159.674 415.451 166.193 421.97 174.234 421.97Z" fill="#ABABAB"/>
<path d="M245.524 234.33C264.689 234.33 280.224 218.794 280.224 199.63C280.224 180.465 264.689 164.93 245.524 164.93C226.36 164.93 210.824 180.465 210.824 199.63C210.824 218.794 226.36 234.33 245.524 234.33Z" fill="url(#paint5_linear_2605_20143)"/>
<g filter="url(#filter0_d_2605_20143)">
<path d="M245.524 218.36C255.869 218.36 264.254 209.975 264.254 199.63C264.254 189.286 255.869 180.9 245.524 180.9C235.18 180.9 226.794 189.286 226.794 199.63C226.794 209.975 235.18 218.36 245.524 218.36Z" fill="url(#paint6_linear_2605_20143)"/>
</g>
<path d="M245.534 262.5H245.524C239.957 262.5 235.444 267.013 235.444 272.58V296.83C235.444 302.397 239.957 306.91 245.524 306.91H245.534C251.101 306.91 255.614 302.397 255.614 296.83V272.58C255.614 267.013 251.101 262.5 245.534 262.5Z" fill="url(#paint7_linear_2605_20143)"/>
<path d="M443.694 416.1C442.707 387.176 430.522 359.766 409.711 339.653C388.9 319.541 361.091 308.299 332.149 308.299C303.208 308.299 275.398 319.541 254.587 339.653C233.776 359.766 221.592 387.176 220.604 416.1H215.034C212.912 416.1 210.878 416.943 209.377 418.443C207.877 419.944 207.034 421.979 207.034 424.1V452.1C207.034 454.222 207.877 456.257 209.377 457.757C210.878 459.257 212.912 460.1 215.034 460.1H449.264C451.386 460.1 453.421 459.257 454.921 457.757C456.421 456.257 457.264 454.222 457.264 452.1V424.1C457.264 421.979 456.421 419.944 454.921 418.443C453.421 416.943 451.386 416.1 449.264 416.1H443.694ZM332.144 352.29C349.411 352.31 366.018 358.929 378.566 370.791C391.114 382.653 398.654 398.861 399.644 416.1H357.274C356.359 410.091 353.32 404.609 348.71 400.648C344.1 396.687 338.222 394.509 332.144 394.509C326.066 394.509 320.189 396.687 315.578 400.648C310.968 404.609 307.93 410.091 307.014 416.1H264.644C265.636 398.862 273.177 382.655 285.725 370.793C298.272 358.932 314.878 352.313 332.144 352.29ZM323.544 416.1C324.279 414.43 325.483 413.009 327.011 412.012C328.539 411.015 330.325 410.484 332.149 410.484C333.974 410.484 335.759 411.015 337.287 412.012C338.815 413.009 340.02 414.43 340.754 416.1H323.544Z" fill="url(#paint8_linear_2605_20143)"/>
<path fill-rule="evenodd" clip-rule="evenodd" d="M313.221 310.528C314.581 310.288 315.877 311.196 316.116 312.556L319.276 330.506C319.516 331.866 318.607 333.162 317.248 333.402C315.888 333.641 314.591 332.733 314.352 331.373L311.192 313.423C310.953 312.063 311.861 310.767 313.221 310.528Z" fill="#D4D4D4"/>
<path fill-rule="evenodd" clip-rule="evenodd" d="M277.633 323.485C278.829 322.794 280.358 323.203 281.049 324.399L290.169 340.179C290.86 341.374 290.451 342.903 289.255 343.594C288.06 344.285 286.531 343.876 285.84 342.681L276.72 326.901C276.029 325.705 276.438 324.176 277.633 323.485Z" fill="#D4D4D4"/>
<path fill-rule="evenodd" clip-rule="evenodd" d="M248.63 347.822C249.518 346.765 251.095 346.627 252.152 347.515L266.112 359.235C267.169 360.123 267.307 361.7 266.419 362.757C265.531 363.815 263.954 363.952 262.897 363.064L248.937 351.344C247.88 350.457 247.742 348.88 248.63 347.822Z" fill="#D4D4D4"/>
<path fill-rule="evenodd" clip-rule="evenodd" d="M229.695 380.616C230.167 379.318 231.601 378.649 232.899 379.121L250.029 385.351C251.326 385.823 251.995 387.257 251.524 388.555C251.052 389.852 249.617 390.522 248.32 390.05L231.19 383.82C229.892 383.348 229.223 381.914 229.695 380.616Z" fill="#D4D4D4"/>
<path fill-rule="evenodd" clip-rule="evenodd" d="M434.614 380.616C435.086 381.914 434.417 383.348 433.119 383.82L415.989 390.05C414.691 390.522 413.257 389.852 412.785 388.555C412.313 387.257 412.982 385.823 414.28 385.351L431.41 379.121C432.708 378.649 434.142 379.318 434.614 380.616Z" fill="#D4D4D4"/>
<path fill-rule="evenodd" clip-rule="evenodd" d="M415.679 347.823C416.567 348.881 416.429 350.458 415.371 351.345L401.401 363.065C400.343 363.952 398.766 363.814 397.879 362.757C396.991 361.699 397.129 360.122 398.187 359.234L412.157 347.514C413.215 346.627 414.792 346.765 415.679 347.823Z" fill="#D4D4D4"/>
<path fill-rule="evenodd" clip-rule="evenodd" d="M386.675 323.485C387.871 324.176 388.28 325.705 387.589 326.901L378.469 342.681C377.778 343.876 376.249 344.285 375.053 343.594C373.858 342.903 373.449 341.374 374.14 340.179L383.26 324.399C383.951 323.203 385.48 322.794 386.675 323.485Z" fill="#D4D4D4"/>
<path fill-rule="evenodd" clip-rule="evenodd" d="M351.089 310.528C352.449 310.768 353.356 312.065 353.116 313.424L349.946 331.374C349.706 332.734 348.409 333.642 347.05 333.402C345.69 333.161 344.782 331.865 345.022 330.505L348.192 312.555C348.433 311.195 349.729 310.288 351.089 310.528Z" fill="#D4D4D4"/>
<g style="mix-blend-mode:overlay">
<path fill-rule="evenodd" clip-rule="evenodd" d="M245.534 140H245.524C239.957 140 235.444 144.513 235.444 150.08V166.417C221.196 170.735 210.824 183.971 210.824 199.63C210.824 206.73 212.957 213.333 216.617 218.832L193.385 278.7H178.124C176.533 278.7 175.007 279.332 173.882 280.457C172.756 281.583 172.124 283.109 172.124 284.7C172.124 286.291 172.756 287.817 173.882 288.943C175.007 290.068 176.533 290.7 178.124 290.7H188.728L146.124 400.49C145.764 401.424 145.584 402.419 145.594 403.42L145.974 431.49C146 433.046 146.489 434.558 147.38 435.834C147.72 436.321 148.113 436.765 148.549 437.159L143.054 457.95C142.953 458.328 142.994 458.73 143.17 459.08C143.345 459.43 143.642 459.703 144.006 459.849C144.369 459.994 144.773 460.001 145.141 459.869C145.51 459.736 145.817 459.473 146.004 459.13L156.742 438.603C156.807 438.576 156.871 438.549 156.935 438.521C157.872 438.108 158.717 437.515 159.424 436.776C160.131 436.036 160.685 435.164 161.054 434.21L166.633 419.831C168.846 421.188 171.449 421.97 174.234 421.97C182.276 421.97 188.794 415.451 188.794 407.41C188.794 400.314 183.718 394.404 176.999 393.112L216.732 290.7H235.444V296.83C235.444 302.397 239.957 306.91 245.524 306.91H245.534C251.101 306.91 255.614 302.397 255.614 296.83V290.7H274.272L285.13 318.686C273.952 323.878 263.612 330.932 254.587 339.653C233.776 359.766 221.592 387.176 220.604 416.1H215.034C212.913 416.1 210.878 416.943 209.377 418.443C207.877 419.943 207.034 421.978 207.034 424.1V452.1C207.034 454.222 207.877 456.257 209.377 457.757C210.878 459.257 212.913 460.1 215.034 460.1H449.264C451.386 460.1 453.421 459.257 454.921 457.757C456.421 456.257 457.264 454.222 457.264 452.1V424.1C457.264 421.978 456.421 419.943 454.921 418.443C453.421 416.943 451.386 416.1 449.264 416.1H443.694C442.707 387.176 430.522 359.766 409.711 339.653C388.9 319.541 361.091 308.299 332.149 308.299C324.662 308.299 317.25 309.051 310.015 310.515L302.325 290.7H312.924C314.516 290.7 316.042 290.068 317.167 288.943C318.292 287.817 318.924 286.291 318.924 284.7C318.924 283.109 318.292 281.583 317.167 280.457C316.042 279.332 314.516 278.7 312.924 278.7H297.668L274.432 218.831C278.092 213.332 280.224 206.73 280.224 199.63C280.224 183.975 269.857 170.741 255.614 166.42V150.08C255.614 144.513 251.101 140 245.534 140ZM301.109 359.868C295.542 362.75 290.357 366.414 285.725 370.793C273.177 382.655 265.636 398.862 264.644 416.1H307.014C307.93 410.091 310.968 404.609 315.579 400.648C315.915 400.359 316.258 400.08 316.607 399.81L301.109 359.868ZM343.689 397.282L326.328 352.548C328.255 352.379 330.195 352.293 332.144 352.29C349.411 352.31 366.018 358.928 378.566 370.79C391.114 382.652 398.655 398.861 399.644 416.1H357.274C356.359 410.091 353.32 404.609 348.71 400.648C347.165 399.321 345.478 398.194 343.689 397.282ZM255.614 272.58V278.7H269.616L252.155 233.697C250.008 234.112 247.792 234.33 245.524 234.33C243.241 234.33 241.01 234.109 238.85 233.689L221.387 278.7H235.444V272.58C235.444 267.013 239.957 262.5 245.524 262.5H245.534C251.101 262.5 255.614 267.013 255.614 272.58Z" fill="#D31919"/>
</g>
</g>
<defs>
<filter id="filter0_d_2605_20143" x="212.794" y="174.9" width="57.46" height="57.46" filterUnits="userSpaceOnUse" color-interpolation-filters="sRGB">
<feFlood flood-opacity="0" result="BackgroundImageFix"/>
<feColorMatrix in="SourceAlpha" type="matrix" values="0 0 0 0 0 0 0 0 0 0 0 0 0 0 0 0 0 0 127 0" result="hardAlpha"/>
<feOffset dx="-4" dy="4"/>
<feGaussianBlur stdDeviation="5"/>
<feComposite in2="hardAlpha" operator="out"/>
<feColorMatrix type="matrix" values="0 0 0 0 0 0 0 0 0 0 0 0 0 0 0 0 0 0 0.25 0"/>
<feBlend mode="normal" in2="BackgroundImageFix" result="effect1_dropShadow_2605_20143"/>
<feBlend mode="normal" in="SourceGraphic" in2="effect1_dropShadow_2605_20143" result="shape"/>
</filter>
<linearGradient id="paint0_linear_2605_20143" x1="249.143" y1="140" x2="245.529" y2="173" gradientUnits="userSpaceOnUse">
<stop stop-color="#8C8C8C"/>
<stop offset="1" stop-color="#595959"/>
</linearGradient>
<linearGradient id="paint1_linear_2605_20143" x1="158.726" y1="415.95" x2="155.624" y2="448.754" gradientUnits="userSpaceOnUse">
<stop stop-color="#8C8C8C"/>
<stop offset="1" stop-color="#595959"/>
</linearGradient>
<linearGradient id="paint2_linear_2605_20143" x1="215.678" y1="195.029" x2="92.9521" y2="254.738" gradientUnits="userSpaceOnUse">
<stop stop-color="#ADADAD"/>
<stop offset="1" stop-color="#CACACA"/>
</linearGradient>
<linearGradient id="paint3_linear_2605_20143" x1="17103.3" y1="15774.4" x2="16826" y2="15881.7" gradientUnits="userSpaceOnUse">
<stop stop-color="#EC3B5B"/>
<stop offset="1" stop-color="#C02C4F"/>
</linearGradient>
<linearGradient id="paint4_linear_2605_20143" x1="312.343" y1="195.028" x2="189.581" y2="254.779" gradientUnits="userSpaceOnUse">
<stop stop-color="#ADADAD"/>
<stop offset="1" stop-color="#CACACA"/>
</linearGradient>
<linearGradient id="paint5_linear_2605_20143" x1="257.959" y1="164.93" x2="214.057" y2="215.466" gradientUnits="userSpaceOnUse">
<stop stop-color="#8C8C8C"/>
<stop offset="1" stop-color="#595959"/>
</linearGradient>
<linearGradient id="paint6_linear_2605_20143" x1="3443.86" y1="3202.42" x2="4700.27" y2="1616.74" gradientUnits="userSpaceOnUse">
<stop stop-color="#ABABAB"/>
<stop offset="1" stop-color="#E9E9E9"/>
</linearGradient>
<linearGradient id="paint7_linear_2605_20143" x1="249.143" y1="262.5" x2="225.845" y2="274.681" gradientUnits="userSpaceOnUse">
<stop stop-color="#8C8C8C"/>
<stop offset="1" stop-color="#595959"/>
</linearGradient>
<linearGradient id="paint8_linear_2605_20143" x1="376.984" y1="308.299" x2="296.984" y2="460.1" gradientUnits="userSpaceOnUse">
<stop stop-color="#A6A6A6"/>
<stop offset="1" stop-color="#777777"/>
</linearGradient>
<clipPath id="clip0_2605_20143">
<rect width="600" height="600" fill="white"/>
</clipPath>
</defs>
</svg>
