<svg width="600" height="600" viewBox="0 0 600 600" fill="none" xmlns="http://www.w3.org/2000/svg">
<g clip-path="url(#clip0_456_9401)">
<rect width="600" height="600" fill="#E7FBF8"/>
<path d="M132.402 181.699H467.564V437.887H132.402V181.699Z" fill="url(#paint0_linear_456_9401)"/>
<path fill-rule="evenodd" clip-rule="evenodd" d="M125.816 184.137C125.816 179.166 129.846 175.137 134.816 175.137H465.181C470.151 175.137 474.181 179.166 474.181 184.137V435.527C474.181 440.497 470.151 444.527 465.181 444.527H134.816C129.846 444.527 125.816 440.497 125.816 435.527V184.137ZM148.019 188.339C143.048 188.339 139.019 192.368 139.019 197.339V422.324C139.019 427.295 143.048 431.324 148.019 431.324H451.979C456.949 431.324 460.979 427.295 460.979 422.324V197.339C460.979 192.368 456.949 188.339 451.979 188.339H148.019Z" fill="url(#paint1_linear_456_9401)"/>
<circle cx="300.002" cy="430.348" r="12.157" fill="#A1A1A1"/>
<path d="M299.088 193.032V427.75C302.759 422.448 308.798 419.284 315.246 419.284H451.432C452.537 419.284 453.432 418.389 453.432 417.284V179.674C453.432 178.569 452.537 177.674 451.432 177.674H314.447C305.965 177.674 299.088 184.55 299.088 193.032Z" fill="url(#paint2_linear_456_9401)"/>
<path d="M299.096 190.667V427.74L297.813 425.976C294.688 421.678 290.014 418.763 284.779 417.847L160.551 396.119C159.594 395.951 158.895 395.12 158.895 394.149V156.581C158.895 155.345 160.006 154.404 161.225 154.608L286.271 175.519C293.672 176.757 299.096 183.163 299.096 190.667Z" fill="url(#paint3_linear_456_9401)"/>
<path d="M299.097 188.011V427.723L296.604 424.122C294.404 420.944 291.349 418.453 287.793 416.939L188.951 374.835C188.214 374.521 187.735 373.797 187.735 372.995V135.671C187.735 134.253 189.169 133.286 190.484 133.816L289.486 173.768C295.294 176.112 299.097 181.748 299.097 188.011Z" fill="url(#paint4_linear_456_9401)"/>
<path d="M299.086 184.034V427.749L293.225 419.283L233.833 354.077C233.497 353.709 233.311 353.229 233.311 352.731V116.723C233.311 114.941 235.466 114.049 236.725 115.309L294.588 173.174C297.468 176.054 299.086 179.961 299.086 184.034Z" fill="url(#paint5_linear_456_9401)"/>
<g style="mix-blend-mode:overlay">
<path fill-rule="evenodd" clip-rule="evenodd" d="M296.247 175.137H465.181C470.151 175.137 474.181 179.167 474.181 184.137V435.527C474.181 440.497 470.151 444.527 465.181 444.527H134.816C129.846 444.527 125.816 440.497 125.816 435.527V184.137C125.816 179.167 129.846 175.137 134.816 175.137H158.895V156.581C158.895 155.345 160.006 154.404 161.225 154.608L187.736 159.042V135.671C187.736 134.253 189.17 133.285 190.484 133.816L233.311 151.099V116.723C233.311 114.941 235.465 114.049 236.725 115.309L294.588 173.174C295.199 173.785 295.753 174.442 296.247 175.137Z" fill="#00DCBB"/>
</g>
<path d="M319 219C319 215.686 321.686 213 325 213H402C405.314 213 408 215.686 408 219C408 222.314 405.314 225 402 225H325C321.686 225 319 222.314 319 219Z" fill="#43E5CD"/>
<path d="M319 249C319 245.686 321.686 243 325 243H418C421.314 243 424 245.686 424 249C424 252.314 421.314 255 418 255H325C321.686 255 319 252.314 319 249Z" fill="#43E5CD"/>
<path d="M319 279C319 275.686 321.686 273 325 273H402C405.314 273 408 275.686 408 279C408 282.314 405.314 285 402 285H325C321.686 285 319 282.314 319 279Z" fill="#43E5CD"/>
<path d="M319 309C319 305.686 321.686 303 325 303H402C405.314 303 408 305.686 408 309C408 312.314 405.314 315 402 315H325C321.686 315 319 312.314 319 309Z" fill="#43E5CD"/>
<path d="M319 339C319 335.686 321.686 333 325 333H402C405.314 333 408 335.686 408 339C408 342.314 405.314 345 402 345H325C321.686 345 319 342.314 319 339Z" fill="#43E5CD"/>
<path d="M319 369C319 365.686 321.686 363 325 363H402C405.314 363 408 365.686 408 369C408 372.314 405.314 375 402 375H325C321.686 375 319 372.314 319 369Z" fill="#43E5CD"/>
</g>
<defs>
<linearGradient id="paint0_linear_456_9401" x1="132.402" y1="309.793" x2="279.561" y2="309.793" gradientUnits="userSpaceOnUse">
<stop stop-color="#C5C5C5"/>
<stop offset="1" stop-color="#A2A2A2"/>
</linearGradient>
<linearGradient id="paint1_linear_456_9401" x1="125.816" y1="175.137" x2="299.999" y2="444.527" gradientUnits="userSpaceOnUse">
<stop stop-color="#8E8E8E"/>
<stop offset="1" stop-color="#707070"/>
</linearGradient>
<linearGradient id="paint2_linear_456_9401" x1="299.088" y1="302.712" x2="453.432" y2="302.712" gradientUnits="userSpaceOnUse">
<stop stop-color="#D5D5D5"/>
<stop offset="0.338542" stop-color="#EEEEEE"/>
</linearGradient>
<linearGradient id="paint3_linear_456_9401" x1="158.896" y1="247.298" x2="299.096" y2="247.298" gradientUnits="userSpaceOnUse">
<stop stop-color="#DEDEDE"/>
<stop offset="1" stop-color="#C4C4C4"/>
</linearGradient>
<linearGradient id="paint4_linear_456_9401" x1="187.736" y1="230.367" x2="288.027" y2="230.367" gradientUnits="userSpaceOnUse">
<stop offset="0.130208" stop-color="#F0F0F0"/>
<stop offset="1" stop-color="#DADADA"/>
</linearGradient>
<linearGradient id="paint5_linear_456_9401" x1="233.311" y1="243.065" x2="288.028" y2="247.298" gradientUnits="userSpaceOnUse">
<stop stop-color="white"/>
<stop offset="1" stop-color="#E3E3E3"/>
</linearGradient>
<clipPath id="clip0_456_9401">
<rect width="600" height="600" fill="white"/>
</clipPath>
</defs>
</svg>
