<svg width="600" height="600" viewBox="0 0 600 600" fill="none" xmlns="http://www.w3.org/2000/svg">
<g clip-path="url(#clip0_2605_20535)">
<rect width="600" height="600" fill="#F2FAFE"/>
<path d="M437.728 371.663V265.363H443.238V371.663" fill="#757575"/>
<path d="M315.958 312.253H376.728C382.298 312.253 387.639 310.041 391.577 306.103C395.516 302.164 397.728 296.823 397.728 291.253V265.363H392.218V291.243C392.213 295.351 390.579 299.289 387.676 302.194C384.772 305.099 380.836 306.735 376.728 306.743H315.958V312.253Z" fill="#757575"/>
<path d="M418.184 130.455C429.926 130.455 441.187 135.119 449.489 143.422C457.792 151.725 462.456 162.985 462.456 174.727V244.458H373.913V174.727C373.913 162.985 378.577 151.725 386.879 143.422C395.182 135.119 406.443 130.455 418.184 130.455V130.455Z" fill="url(#paint0_linear_2605_20535)"/>
<path d="M403.994 148.646C403.209 148.652 402.445 148.39 401.828 147.903C401.212 147.416 400.781 146.734 400.605 145.968C400.429 145.202 400.52 144.4 400.863 143.693C401.205 142.986 401.778 142.417 402.488 142.08C407.382 139.716 412.749 138.494 418.184 138.504C419.099 138.504 419.977 138.867 420.623 139.514C421.27 140.161 421.634 141.039 421.634 141.954C421.634 142.869 421.27 143.746 420.623 144.393C419.977 145.04 419.099 145.403 418.184 145.403C413.803 145.401 409.478 146.392 405.535 148.301C405.055 148.534 404.528 148.652 403.994 148.646Z" fill="white"/>
<path d="M385.411 178.178C384.496 178.178 383.619 177.814 382.972 177.167C382.325 176.52 381.961 175.643 381.961 174.728C381.972 165.773 385.303 157.14 391.31 150.499C391.595 150.11 391.959 149.784 392.378 149.544C392.797 149.304 393.261 149.155 393.742 149.106C394.222 149.057 394.707 149.109 395.166 149.259C395.625 149.409 396.047 149.654 396.405 149.977C396.763 150.301 397.05 150.696 397.246 151.137C397.442 151.578 397.543 152.055 397.543 152.538C397.543 153.021 397.442 153.498 397.245 153.939C397.049 154.38 396.763 154.775 396.404 155.099C391.535 160.477 388.838 167.473 388.838 174.728C388.838 175.639 388.478 176.513 387.836 177.159C387.194 177.805 386.322 178.172 385.411 178.178Z" fill="white"/>
<path d="M462.18 244.459H374.2C369.551 244.459 365.783 248.225 365.783 252.871C365.783 257.516 369.551 261.282 374.2 261.282H462.18C466.829 261.282 470.597 257.516 470.597 252.871C470.597 248.225 466.829 244.459 462.18 244.459Z" fill="#B5B1B1"/>
<path d="M385.607 261.291H402.143V270.295C402.143 271.259 401.76 272.183 401.078 272.864C400.397 273.546 399.473 273.929 398.509 273.929H389.241C388.277 273.929 387.353 273.546 386.671 272.864C385.99 272.183 385.607 271.259 385.607 270.295V261.291Z" fill="#B5B1B1"/>
<path d="M433.282 261.291H449.818V270.295C449.818 271.259 449.435 272.183 448.754 272.864C448.072 273.546 447.148 273.929 446.184 273.929H436.916C435.952 273.929 435.028 273.546 434.347 272.864C433.665 272.183 433.282 271.259 433.282 270.295V261.291Z" fill="#B5B1B1"/>
<path d="M391.185 244.459V206.615H410.642L402.144 225.543H397.291V244.459H391.185Z" fill="#707070"/>
<path d="M433.272 206.615L424.762 225.543H438.113V244.459H444.219V225.543V218.126V206.615H433.272Z" fill="#707070"/>
<path d="M282.608 157.461L435.608 422.461C437.142 425.126 437.949 428.147 437.948 431.222C437.946 434.297 437.135 437.317 435.597 439.98C434.059 442.642 431.848 444.853 429.185 446.391C426.523 447.929 423.502 448.74 420.428 448.741H133.728C130.652 448.739 127.631 447.927 124.969 446.388C122.306 444.849 120.095 442.636 118.558 439.973C117.021 437.309 116.212 434.288 116.212 431.212C116.212 428.137 117.021 425.115 118.558 422.451L252.268 157.451C253.807 154.79 256.019 152.58 258.682 151.044C261.345 149.508 264.366 148.7 267.44 148.701C270.515 148.702 273.535 149.512 276.197 151.05C278.86 152.588 281.07 154.799 282.608 157.461Z" fill="#A8A8A8"/>
<path d="M202.177 377.822L432.297 444.082C429.081 447.095 424.834 448.762 420.427 448.742H133.727C130.807 448.755 127.931 448.029 125.367 446.63C122.804 445.231 120.636 443.205 119.067 440.742L202.177 377.822Z" fill="url(#paint1_linear_2605_20535)"/>
<path opacity="0.7" d="M282.608 157.463L435.608 422.463C437.142 425.127 437.949 428.148 437.947 431.223C437.946 434.298 437.135 437.318 435.597 439.981C434.059 442.643 431.848 444.855 429.185 446.393C426.523 447.93 423.502 448.741 420.428 448.743H181.978L267.428 148.743C270.504 148.719 273.531 149.514 276.199 151.046C278.866 152.579 281.078 154.793 282.608 157.463Z" fill="url(#paint2_linear_2605_20535)"/>
<path opacity="0.75" d="M118.558 422.453L252.268 157.453C253.796 154.788 256.006 152.577 258.669 151.047C261.333 149.517 264.356 148.721 267.428 148.743L181.978 448.743H133.728C130.652 448.74 127.631 447.929 124.969 446.389C122.306 444.85 120.095 442.638 118.558 439.974C117.021 437.31 116.212 434.289 116.212 431.213C116.212 428.138 117.021 425.117 118.558 422.453Z" fill="url(#paint3_linear_2605_20535)"/>
<path d="M371.257 286.383C372.095 285.547 372.759 284.554 373.213 283.461C373.666 282.368 373.899 281.196 373.899 280.013C373.899 278.83 373.666 277.658 373.213 276.565C372.759 275.472 372.095 274.479 371.257 273.643L350.437 252.823C349.601 251.984 348.608 251.318 347.514 250.864C346.42 250.41 345.247 250.176 344.062 250.176C342.878 250.176 341.705 250.41 340.611 250.864C339.517 251.318 338.524 251.984 337.687 252.823L305.857 284.653L339.427 318.223L371.257 286.383Z" fill="url(#paint4_linear_2605_20535)"/>
<path d="M390.618 369.412L361.978 398.052C358.561 401.461 354.498 404.153 350.027 405.97C345.557 407.787 340.768 408.694 335.942 408.636C331.117 408.578 326.351 407.558 321.925 405.634C317.499 403.71 313.502 400.922 310.168 397.432C296.528 383.122 297.288 360.362 311.258 346.382L339.428 318.222L305.858 284.652L277.968 312.542C245.398 345.112 244.378 398.152 276.638 431.032C284.384 438.917 293.614 445.19 303.797 449.491C313.979 453.791 324.912 456.033 335.965 456.088C347.018 456.143 357.972 454.009 368.197 449.81C378.421 445.611 387.714 439.43 395.538 431.622L424.188 402.982L390.618 369.412Z" fill="url(#paint5_linear_2605_20535)"/>
<path d="M456.018 371.143C456.856 370.307 457.52 369.314 457.974 368.221C458.427 367.128 458.66 365.956 458.66 364.773C458.66 363.589 458.427 362.418 457.974 361.325C457.52 360.232 456.856 359.239 456.018 358.403L435.198 337.583C434.362 336.744 433.369 336.078 432.275 335.624C431.181 335.169 430.008 334.936 428.823 334.936C427.639 334.936 426.466 335.169 425.372 335.624C424.278 336.078 423.284 336.744 422.448 337.583L390.618 369.413L424.188 402.983L456.018 371.143Z" fill="url(#paint6_linear_2605_20535)"/>
<g style="mix-blend-mode:overlay">
<path d="M449.489 143.422C441.186 135.119 429.925 130.455 418.184 130.455C406.442 130.455 395.182 135.119 386.879 143.422C378.576 151.725 373.912 162.985 373.912 174.727V244.458H374.201C369.552 244.458 365.783 248.224 365.783 252.87C365.783 257.516 369.552 261.281 374.201 261.281H462.181C466.829 261.281 470.598 257.516 470.598 252.87C470.598 248.224 466.829 244.458 462.181 244.458H462.456V174.727C462.456 162.985 457.791 151.725 449.489 143.422Z" fill="#A6C3D1"/>
<path d="M371.978 312.253H376.728C382.298 312.253 387.639 310.041 391.577 306.103C395.516 302.164 397.728 296.823 397.728 291.253V273.93H398.509C399.473 273.93 400.397 273.547 401.079 272.865C401.76 272.184 402.143 271.26 402.143 270.296V261.292H385.607V270.296C385.607 271.26 385.99 272.184 386.672 272.865C387.353 273.547 388.277 273.93 389.241 273.93H392.218V291.243C392.213 295.351 390.579 299.289 387.676 302.194C384.772 305.1 380.836 306.735 376.728 306.743H368.796L362.246 295.397L371.257 286.383C372.095 285.547 372.759 284.554 373.213 283.461C373.666 282.368 373.899 281.196 373.899 280.013C373.899 278.829 373.666 277.658 373.213 276.564C372.759 275.472 372.095 274.479 371.257 273.643L350.437 252.823C349.601 251.983 348.608 251.318 347.514 250.864C346.42 250.409 345.247 250.176 344.062 250.176C342.878 250.176 341.705 250.409 340.611 250.864C339.517 251.318 338.524 251.983 337.687 252.823L337.673 252.837L282.608 157.462L282.528 157.325C280.995 154.724 278.814 152.562 276.197 151.051C276.036 150.958 275.874 150.868 275.711 150.78C275.601 150.722 275.491 150.664 275.381 150.607C275.169 150.5 274.955 150.396 274.74 150.298C272.455 149.25 269.966 148.702 267.44 148.702C264.901 148.702 262.399 149.252 260.104 150.31C259.616 150.532 259.137 150.778 258.669 151.047C258.504 151.143 258.34 151.243 258.177 151.346C258.018 151.446 257.86 151.549 257.705 151.652C256.347 152.56 255.125 153.65 254.073 154.891C253.398 155.686 252.794 156.543 252.268 157.452L118.558 422.452C117.021 425.116 116.212 428.138 116.212 431.213C116.212 434.289 117.021 437.31 118.558 439.974C119.463 441.541 120.601 442.952 121.927 444.162L121.975 444.206C123 445.145 124.138 445.96 125.367 446.631C127.931 448.029 130.807 448.757 133.728 448.742H302.076C302.646 448.998 303.22 449.249 303.797 449.492C313.979 453.792 324.912 456.034 335.965 456.089C347.018 456.145 357.972 454.011 368.197 449.812C369.033 449.469 369.862 449.111 370.685 448.742H420.616C424.148 448.72 427.569 447.615 430.43 445.603L430.444 445.592C432.416 444.217 434.087 442.45 435.35 440.396C435.434 440.259 435.517 440.12 435.597 439.98C437.134 437.321 437.944 434.304 437.948 431.231V431.223C437.949 428.151 437.144 425.133 435.612 422.47L424.298 402.873L456.018 371.143C456.856 370.307 457.52 369.313 457.974 368.221C458.427 367.128 458.66 365.956 458.66 364.772C458.66 363.589 458.427 362.418 457.974 361.324C457.52 360.231 456.856 359.238 456.018 358.402L443.238 345.622V273.93H446.184C447.148 273.93 448.072 273.547 448.754 272.865C449.435 272.184 449.818 271.26 449.818 270.296V261.292H433.282V270.296C433.282 271.26 433.665 272.184 434.346 272.865C435.028 273.547 435.952 273.93 436.916 273.93H437.728V340.112L435.198 337.583C434.362 336.743 433.369 336.078 432.275 335.624C431.181 335.169 430.008 334.936 428.823 334.936C427.639 334.936 426.466 335.169 425.372 335.624C424.278 336.078 423.284 336.743 422.448 337.583L399.723 360.309L371.978 312.253Z" fill="#A6C3D1"/>
</g>
</g>
<defs>
<linearGradient id="paint0_linear_2605_20535" x1="418.184" y1="130.455" x2="418.184" y2="244.458" gradientUnits="userSpaceOnUse">
<stop stop-color="#6F6F6F"/>
<stop offset="1" stop-color="#D0CFCF"/>
</linearGradient>
<linearGradient id="paint1_linear_2605_20535" x1="129" y1="448.742" x2="432.297" y2="448.742" gradientUnits="userSpaceOnUse">
<stop offset="0.015625"/>
<stop offset="1" stop-color="#828282"/>
</linearGradient>
<linearGradient id="paint2_linear_2605_20535" x1="427" y1="352.994" x2="225" y2="324.994" gradientUnits="userSpaceOnUse">
<stop stop-color="#242424" stop-opacity="0"/>
<stop offset="1" stop-color="white" stop-opacity="0.79"/>
</linearGradient>
<linearGradient id="paint3_linear_2605_20535" x1="169" y1="310.994" x2="215" y2="332.994" gradientUnits="userSpaceOnUse">
<stop stop-color="#F0F0F0"/>
<stop offset="0.0001" stop-color="white"/>
<stop offset="1" stop-color="#555555"/>
</linearGradient>
<linearGradient id="paint4_linear_2605_20535" x1="339.878" y1="250.176" x2="339.878" y2="318.223" gradientUnits="userSpaceOnUse">
<stop stop-color="#E3E0E0"/>
<stop offset="1" stop-color="#ACACAC"/>
</linearGradient>
<linearGradient id="paint5_linear_2605_20535" x1="363.242" y1="331.89" x2="267.719" y2="416.02" gradientUnits="userSpaceOnUse">
<stop stop-color="#666666"/>
<stop offset="1" stop-color="#454444"/>
</linearGradient>
<linearGradient id="paint6_linear_2605_20535" x1="424.639" y1="334.936" x2="424.639" y2="402.983" gradientUnits="userSpaceOnUse">
<stop stop-color="#E3E0E0"/>
<stop offset="1" stop-color="#ACACAC"/>
</linearGradient>
<clipPath id="clip0_2605_20535">
<rect width="600" height="600" fill="white"/>
</clipPath>
</defs>
</svg>
